<svg width="12" height="10" viewBox="0 0 12 10" fill="none" xmlns="http://www.w3.org/2000/svg">
<path d="M11.7184 2.91667H10.3152L9.92524 1.83333C9.52446 0.719531 8.56797 0 7.48821 0H4.51164C3.43211 0 2.47539 0.719531 2.07437 1.83333L1.68437 2.91667H0.2814C0.0983524 2.91667 -0.0359447 3.10781 0.00858665 3.30495L0.149212 3.92995C0.180384 4.06901 0.292884 4.16667 0.422025 4.16667H0.892416C0.57765 4.47214 0.374915 4.91615 0.374915 5.41667V6.66667C0.374915 7.08646 0.51929 7.46536 0.749916 7.75859V9.16667C0.749916 9.62682 1.08578 10 1.49992 10H2.24992C2.66406 10 2.99992 9.62682 2.99992 9.16667V8.33333H8.99993V9.16667C8.99993 9.62682 9.33579 10 9.74993 10H10.4999C10.9141 10 11.2499 9.62682 11.2499 9.16667V7.75859C11.4806 7.46562 11.6249 7.08672 11.6249 6.66667V5.41667C11.6249 4.91615 11.4222 4.47214 11.1077 4.16667H11.5781C11.7072 4.16667 11.8197 4.06901 11.8509 3.92995L11.9915 3.30495C12.0358 3.10781 11.9015 2.91667 11.7184 2.91667ZM3.46703 2.45234C3.63789 1.97786 4.05156 1.66667 4.51164 1.66667H7.48821C7.94829 1.66667 8.36196 1.97786 8.53282 2.45234L8.99993 3.75H2.99992L3.46703 2.45234ZM2.24992 6.66146C1.79992 6.66146 1.49992 6.32917 1.49992 5.83073C1.49992 5.33229 1.79992 5 2.24992 5C2.69992 5 3.37492 5.74766 3.37492 6.24609C3.37492 6.74453 2.69992 6.66146 2.24992 6.66146ZM9.74993 6.66146C9.29993 6.66146 8.62493 6.74453 8.62493 6.24609C8.62493 5.74766 9.29993 5 9.74993 5C10.1999 5 10.4999 5.33229 10.4999 5.83073C10.4999 6.32917 10.1999 6.66146 9.74993 6.66146Z" fill="white"/>
</svg>
