<svg width="27" height="25" viewBox="0 0 27 25" fill="none" xmlns="http://www.w3.org/2000/svg">
<path d="M11.8125 21.875C11.8125 21.875 10.125 21.875 10.125 20.3125C10.125 18.75 11.8125 14.0625 18.5625 14.0625C25.3125 14.0625 27 18.75 27 20.3125C27 21.875 25.3125 21.875 25.3125 21.875H11.8125ZM18.5625 12.5C19.9052 12.5 21.1928 12.0061 22.1422 11.1271C23.0916 10.248 23.625 9.0557 23.625 7.8125C23.625 6.5693 23.0916 5.37701 22.1422 4.49794C21.1928 3.61886 19.9052 3.125 18.5625 3.125C17.2198 3.125 15.9322 3.61886 14.9828 4.49794C14.0334 5.37701 13.5 6.5693 13.5 7.8125C13.5 9.0557 14.0334 10.248 14.9828 11.1271C15.9322 12.0061 17.2198 12.5 18.5625 12.5Z" fill="black"/>
<path fill-rule="evenodd" clip-rule="evenodd" d="M8.802 21.8747C8.55183 21.3869 8.42707 20.8521 8.4375 20.3122C8.4375 18.195 9.585 16.0153 11.7045 14.4997C10.6466 14.1979 9.54441 14.0503 8.4375 14.0622C1.6875 14.0622 0 18.7497 0 20.3122C0 21.8747 1.6875 21.8747 1.6875 21.8747H8.802Z" fill="black"/>
<path d="M7.59375 12.5C8.71263 12.5 9.78569 12.0884 10.5769 11.3559C11.368 10.6233 11.8125 9.62975 11.8125 8.59375C11.8125 7.55775 11.368 6.56418 10.5769 5.83161C9.78569 5.09905 8.71263 4.6875 7.59375 4.6875C6.47487 4.6875 5.40181 5.09905 4.61064 5.83161C3.81947 6.56418 3.375 7.55775 3.375 8.59375C3.375 9.62975 3.81947 10.6233 4.61064 11.3559C5.40181 12.0884 6.47487 12.5 7.59375 12.5Z" fill="black"/>
</svg>
