<svg width="20" height="20" viewBox="0 0 20 20" fill="none" xmlns="http://www.w3.org/2000/svg">
<g clip-path="url(#clip0_0_7)">
<path d="M19.5305 6.87489H17.1919L16.5419 5.24991C15.8739 3.57922 14.2798 2.49994 12.4802 2.49994H7.51931C5.72011 2.49994 4.1256 3.57922 3.45724 5.24991L2.80725 6.87489H0.468994C0.163919 6.87489 -0.0599071 7.16161 0.0143109 7.45731L0.248683 8.3948C0.300636 8.60339 0.488134 8.74987 0.703366 8.74987H1.48734C0.962739 9.20807 0.624851 9.87408 0.624851 10.6249V12.4998C0.624851 13.1295 0.865474 13.6979 1.24984 14.1377V16.2498C1.24984 16.94 1.8096 17.4998 2.49983 17.4998H3.74982C4.44005 17.4998 4.9998 16.94 4.9998 16.2498V14.9998H14.9997V16.2498C14.9997 16.94 15.5595 17.4998 16.2497 17.4998H17.4997C18.1899 17.4998 18.7497 16.94 18.7497 16.2498V14.1377C19.134 13.6983 19.3747 13.1299 19.3747 12.4998V10.6249C19.3747 9.87408 19.0368 9.20807 18.5126 8.74987H19.2965C19.5118 8.74987 19.6993 8.60339 19.7512 8.3948L19.9856 7.45731C20.0594 7.16161 19.8356 6.87489 19.5305 6.87489ZM5.77831 6.17841C6.06308 5.4667 6.75252 4.99991 7.51931 4.99991H12.4802C13.247 4.99991 13.9364 5.4667 14.2212 6.17841L14.9997 8.12488H4.9998L5.77831 6.17841ZM3.74982 12.492C2.99983 12.492 2.49983 11.9936 2.49983 11.2459C2.49983 10.4983 2.99983 9.99986 3.74982 9.99986C4.49981 9.99986 5.6248 11.1213 5.6248 11.869C5.6248 12.6166 4.49981 12.492 3.74982 12.492ZM16.2497 12.492C15.4997 12.492 14.3747 12.6166 14.3747 11.869C14.3747 11.1213 15.4997 9.99986 16.2497 9.99986C16.9997 9.99986 17.4997 10.4983 17.4997 11.2459C17.4997 11.9936 16.9997 12.492 16.2497 12.492Z" fill="white"/>
</g>
<defs>
<clipPath id="clip0_0_7">
<rect width="19.6429" height="19.6429" fill="white" transform="scale(1.01817)"/>
</clipPath>
</defs>
</svg>
