<svg width="30" height="30" viewBox="0 0 30 30" fill="none" xmlns="http://www.w3.org/2000/svg">
<path d="M15 0L27.3937 5.70093H29.0625C29.3111 5.70093 29.5496 5.7994 29.7254 5.97467C29.9012 6.14993 30 6.38765 30 6.63551V10.3738C30 10.6217 29.9012 10.8594 29.7254 11.0347C29.5496 11.2099 29.3111 11.3084 29.0625 11.3084H28.125V24.3925C28.3341 24.3926 28.5372 24.4623 28.702 24.5907C28.8668 24.7191 28.9838 24.8987 29.0344 25.1009L29.9719 28.8393C30.0063 28.977 30.0089 29.1208 29.9793 29.2596C29.9497 29.3985 29.8888 29.5288 29.8011 29.6407C29.7135 29.7526 29.6014 29.8431 29.4734 29.9053C29.3454 29.9676 29.2049 30 29.0625 30H0.9375C0.795096 30 0.654572 29.9676 0.526595 29.9053C0.398617 29.8431 0.286549 29.7526 0.198896 29.6407C0.111243 29.5288 0.0503098 29.3985 0.0207204 29.2596C-0.00886906 29.1208 -0.00633678 28.977 0.028125 28.8393L0.965625 25.1009C1.01623 24.8987 1.13323 24.7191 1.298 24.5907C1.46278 24.4623 1.66588 24.3926 1.875 24.3925V11.3084H0.9375C0.68886 11.3084 0.450403 11.2099 0.274587 11.0347C0.0987721 10.8594 0 10.6217 0 10.3738V6.63551C0 6.38765 0.0987721 6.14993 0.274587 5.97467C0.450403 5.7994 0.68886 5.70093 0.9375 5.70093H2.60625L15 0ZM7.08 5.70093H22.9181L15 2.05607L7.08 5.70093ZM3.75 11.3084V24.3925H5.625V11.3084H3.75ZM7.5 11.3084V24.3925H12.1875V11.3084H7.5ZM14.0625 11.3084V24.3925H15.9375V11.3084H14.0625ZM17.8125 11.3084V24.3925H22.5V11.3084H17.8125ZM24.375 11.3084V24.3925H26.25V11.3084H24.375ZM28.125 9.43925V7.57009H1.875V9.43925H28.125ZM27.3937 26.2617H2.60625L2.1375 28.1308H27.8625L27.3937 26.2617Z" fill="black"/>
</svg>
