<svg width="15" height="12" viewBox="0 0 15 12" fill="none" xmlns="http://www.w3.org/2000/svg">
<path d="M14.6481 3.5H12.8941L12.4066 2.2C11.9056 0.863437 10.71 0 9.36026 0H5.63955C4.29013 0 3.09423 0.863437 2.59296 2.2L2.10546 3.5H0.351749C0.122941 3.5 -0.0449308 3.72938 0.0107333 3.96594L0.186515 4.71594C0.22548 4.88281 0.366105 5 0.527531 5H1.11552C0.722062 5.36656 0.468644 5.89937 0.468644 6.5V8C0.468644 8.50375 0.649113 8.95844 0.937395 9.31031V11C0.937395 11.5522 1.35722 12 1.8749 12H2.8124C3.33007 12 3.7499 11.5522 3.7499 11V10H11.2499V11C11.2499 11.5522 11.6697 12 12.1874 12H13.1249C13.6426 12 14.0624 11.5522 14.0624 11V9.31031C14.3507 8.95875 14.5312 8.50406 14.5312 8V6.5C14.5312 5.89937 14.2777 5.36656 13.8846 5H14.4726C14.634 5 14.7746 4.88281 14.8136 4.71594L14.9894 3.96594C15.0447 3.72938 14.8769 3.5 14.6481 3.5ZM4.33379 2.94281C4.54736 2.37344 5.06445 2 5.63955 2H9.36026C9.93536 2 10.4524 2.37344 10.666 2.94281L11.2499 4.5H3.7499L4.33379 2.94281ZM2.8124 7.99375C2.2499 7.99375 1.8749 7.595 1.8749 6.99687C1.8749 6.39875 2.2499 6 2.8124 6C3.3749 6 4.21865 6.89719 4.21865 7.49531C4.21865 8.09344 3.3749 7.99375 2.8124 7.99375ZM12.1874 7.99375C11.6249 7.99375 10.7812 8.09344 10.7812 7.49531C10.7812 6.89719 11.6249 6 12.1874 6C12.7499 6 13.1249 6.39875 13.1249 6.99687C13.1249 7.595 12.7499 7.99375 12.1874 7.99375Z" fill="#808080"/>
</svg>
