<svg width="22" height="22" viewBox="0 0 22 22" fill="none" xmlns="http://www.w3.org/2000/svg">
<path d="M18.7049 3.18869C16.6473 1.13147 13.9071 0 10.9951 0C4.98436 0 0.0933033 4.87855 0.0933033 10.8739C0.0933033 12.789 0.594195 14.6601 1.54687 16.3108L0 21.9437L5.77989 20.4301C7.37096 21.2971 9.16337 21.7526 10.9901 21.7526H10.9951C17.0008 21.7526 21.9999 16.8741 21.9999 10.8788C21.9999 7.97417 20.7624 5.24591 18.7049 3.18869ZM10.9951 19.9207C9.36471 19.9207 7.76873 19.4848 6.379 18.6619L6.04998 18.466L2.62231 19.3624L3.5357 16.0267L3.31963 15.6838C2.41115 14.2438 1.93482 12.5833 1.93482 10.8739C1.93482 5.89246 6.00088 1.8368 11 1.8368C13.4209 1.8368 15.6946 2.77725 17.4035 4.4867C19.1124 6.19615 20.1633 8.46399 20.1584 10.8788C20.1584 15.8651 15.9892 19.9207 10.9951 19.9207ZM15.9647 13.1515C15.6946 13.0144 14.354 12.358 14.1035 12.2698C13.8531 12.1768 13.6714 12.1327 13.4897 12.407C13.308 12.6813 12.7875 13.2887 12.6254 13.4748C12.4683 13.656 12.3062 13.6805 12.0361 13.5434C10.4352 12.745 9.38435 12.118 8.32855 10.3106C8.04864 9.83057 8.60846 9.86486 9.12899 8.82645C9.21738 8.64522 9.17319 8.48848 9.10444 8.35133C9.03569 8.21418 8.4906 6.87699 8.26471 6.3333C8.04373 5.8043 7.81784 5.87777 7.65087 5.86797C7.49373 5.85818 7.31203 5.85818 7.13034 5.85818C6.94864 5.85818 6.654 5.92675 6.40355 6.19615C6.15311 6.47044 5.45088 7.1268 5.45088 8.46399C5.45088 9.80118 6.42811 11.0943 6.5607 11.2755C6.6982 11.4568 8.48078 14.1997 11.216 15.3802C12.9446 16.1247 13.6223 16.1884 14.4866 16.061C15.012 15.9826 16.0973 15.4047 16.3232 14.7679C16.5491 14.1311 16.5491 13.5874 16.4803 13.4748C16.4165 13.3523 16.2348 13.2838 15.9647 13.1515Z" fill="#25D366"/>
</svg>
