<svg width="10" height="16" viewBox="0 0 10 16" fill="none" xmlns="http://www.w3.org/2000/svg">
<path fill-rule="evenodd" clip-rule="evenodd" d="M0.209794 0.180771C0.276128 0.123469 0.35493 0.0780066 0.441687 0.0469869C0.528444 0.0159672 0.62145 0 0.71538 0C0.809309 0 0.902316 0.0159672 0.989072 0.0469869C1.07583 0.0780066 1.15463 0.123469 1.22097 0.180771L9.79021 7.56452C9.85671 7.62168 9.90947 7.68958 9.94547 7.76433C9.98147 7.83909 10 7.91923 10 8.00016C10 8.0811 9.98147 8.16124 9.94547 8.23599C9.90947 8.31074 9.85671 8.37865 9.79021 8.4358L1.22097 15.8196C1.08688 15.9351 0.905011 16 0.71538 16C0.525748 16 0.343884 15.9351 0.209794 15.8196C0.0757048 15.704 0.000373881 15.5473 0.000373881 15.3839C0.000373881 15.2205 0.0757048 15.0638 0.209794 14.9483L8.27488 8.00016L0.209794 1.05205C0.143292 0.994897 0.0905301 0.926996 0.0545301 0.852242C0.0185301 0.777487 0 0.697347 0 0.616412C0 0.535478 0.0185301 0.455338 0.0545301 0.380583C0.0905301 0.305829 0.143292 0.237928 0.209794 0.180771Z" fill="#009BD9"/>
</svg>
