<svg width="30" height="35" viewBox="0 0 30 35" fill="none" xmlns="http://www.w3.org/2000/svg">
<g clip-path="url(#clip0_253_316)">
<path d="M27.1875 6.5625C27.4361 6.5625 27.6746 6.67773 27.8504 6.88285C28.0262 7.08797 28.125 7.36617 28.125 7.65625V27.3438C28.125 27.6338 28.0262 27.912 27.8504 28.1171C27.6746 28.3223 27.4361 28.4375 27.1875 28.4375H2.8125C2.56386 28.4375 2.3254 28.3223 2.14959 28.1171C1.97377 27.912 1.875 27.6338 1.875 27.3438V7.65625C1.875 7.36617 1.97377 7.08797 2.14959 6.88285C2.3254 6.67773 2.56386 6.5625 2.8125 6.5625H27.1875ZM2.8125 4.375C2.06658 4.375 1.35121 4.7207 0.823762 5.33606C0.296316 5.95141 0 6.78601 0 7.65625L0 27.3438C0 28.214 0.296316 29.0486 0.823762 29.6639C1.35121 30.2793 2.06658 30.625 2.8125 30.625H27.1875C27.9334 30.625 28.6488 30.2793 29.1762 29.6639C29.7037 29.0486 30 28.214 30 27.3438V7.65625C30 6.78601 29.7037 5.95141 29.1762 5.33606C28.6488 4.7207 27.9334 4.375 27.1875 4.375H2.8125Z" fill="#009BD9"/>
<path d="M9.375 17.5C9.375 17.2099 9.47377 16.9317 9.64959 16.7266C9.8254 16.5215 10.0639 16.4062 10.3125 16.4062H23.4375C23.6861 16.4062 23.9246 16.5215 24.1004 16.7266C24.2762 16.9317 24.375 17.2099 24.375 17.5C24.375 17.7901 24.2762 18.0683 24.1004 18.2734C23.9246 18.4785 23.6861 18.5938 23.4375 18.5938H10.3125C10.0639 18.5938 9.8254 18.4785 9.64959 18.2734C9.47377 18.0683 9.375 17.7901 9.375 17.5ZM9.375 12.0312C9.375 11.7412 9.47377 11.463 9.64959 11.2579C9.8254 11.0527 10.0639 10.9375 10.3125 10.9375H23.4375C23.6861 10.9375 23.9246 11.0527 24.1004 11.2579C24.2762 11.463 24.375 11.7412 24.375 12.0312C24.375 12.3213 24.2762 12.5995 24.1004 12.8046C23.9246 13.0098 23.6861 13.125 23.4375 13.125H10.3125C10.0639 13.125 9.8254 13.0098 9.64959 12.8046C9.47377 12.5995 9.375 12.3213 9.375 12.0312ZM9.375 22.9688C9.375 22.6787 9.47377 22.4005 9.64959 22.1954C9.8254 21.9902 10.0639 21.875 10.3125 21.875H23.4375C23.6861 21.875 23.9246 21.9902 24.1004 22.1954C24.2762 22.4005 24.375 22.6787 24.375 22.9688C24.375 23.2588 24.2762 23.537 24.1004 23.7421C23.9246 23.9473 23.6861 24.0625 23.4375 24.0625H10.3125C10.0639 24.0625 9.8254 23.9473 9.64959 23.7421C9.47377 23.537 9.375 23.2588 9.375 22.9688ZM7.5 12.0312C7.5 12.3213 7.40123 12.5995 7.22541 12.8046C7.0496 13.0098 6.81114 13.125 6.5625 13.125C6.31386 13.125 6.0754 13.0098 5.89959 12.8046C5.72377 12.5995 5.625 12.3213 5.625 12.0312C5.625 11.7412 5.72377 11.463 5.89959 11.2579C6.0754 11.0527 6.31386 10.9375 6.5625 10.9375C6.81114 10.9375 7.0496 11.0527 7.22541 11.2579C7.40123 11.463 7.5 11.7412 7.5 12.0312ZM7.5 17.5C7.5 17.7901 7.40123 18.0683 7.22541 18.2734C7.0496 18.4785 6.81114 18.5938 6.5625 18.5938C6.31386 18.5938 6.0754 18.4785 5.89959 18.2734C5.72377 18.0683 5.625 17.7901 5.625 17.5C5.625 17.2099 5.72377 16.9317 5.89959 16.7266C6.0754 16.5215 6.31386 16.4062 6.5625 16.4062C6.81114 16.4062 7.0496 16.5215 7.22541 16.7266C7.40123 16.9317 7.5 17.2099 7.5 17.5ZM7.5 22.9688C7.5 23.2588 7.40123 23.537 7.22541 23.7421C7.0496 23.9473 6.81114 24.0625 6.5625 24.0625C6.31386 24.0625 6.0754 23.9473 5.89959 23.7421C5.72377 23.537 5.625 23.2588 5.625 22.9688C5.625 22.6787 5.72377 22.4005 5.89959 22.1954C6.0754 21.9902 6.31386 21.875 6.5625 21.875C6.81114 21.875 7.0496 21.9902 7.22541 22.1954C7.40123 22.4005 7.5 22.6787 7.5 22.9688Z" fill="#009BD9"/>
</g>
<defs>
<clipPath id="clip0_253_316">
<rect width="30" height="35" fill="white"/>
</clipPath>
</defs>
</svg>
