<svg width="40" height="28" viewBox="0 0 40 28" fill="none" xmlns="http://www.w3.org/2000/svg">
<path d="M31.3056 12.9375H27.8333V17.25L26.4444 16.2932L25.0556 17.25V12.9375H21.5833C21.2014 12.9375 20.8889 13.2609 20.8889 13.6562V22.2812C20.8889 22.6766 21.2014 23 21.5833 23H31.3056C31.6875 23 32 22.6766 32 22.2812V13.6562C32 13.2609 31.6875 12.9375 31.3056 12.9375ZM14.6389 10.0625H24.3611C24.7431 10.0625 25.0556 9.73906 25.0556 9.34375V0.71875C25.0556 0.323437 24.7431 0 24.3611 0H20.8889V4.3125L19.5 3.35566L18.1111 4.3125V0H14.6389C14.2569 0 13.9444 0.323437 13.9444 0.71875V9.34375C13.9444 9.73906 14.2569 10.0625 14.6389 10.0625ZM17.4167 12.9375H13.9444V17.25L12.5556 16.2932L11.1667 17.25V12.9375H7.69444C7.3125 12.9375 7 13.2609 7 13.6562V22.2812C7 22.6766 7.3125 23 7.69444 23H17.4167C17.7986 23 18.1111 22.6766 18.1111 22.2812V13.6562C18.1111 13.2609 17.7986 12.9375 17.4167 12.9375Z" fill="#009BD9"/>
</svg>
