<svg width="50" height="50" viewBox="0 0 50 50" fill="none" xmlns="http://www.w3.org/2000/svg">
<path fill-rule="evenodd" clip-rule="evenodd" d="M43.2938 6.70636C43.4393 6.8515 43.5547 7.02392 43.6335 7.21375C43.7123 7.40358 43.7528 7.60708 43.7528 7.81261C43.7528 8.01813 43.7123 8.22163 43.6335 8.41146C43.5547 8.60129 43.4393 8.77372 43.2938 8.91886L8.91877 43.2939C8.62538 43.5873 8.22744 43.7521 7.81252 43.7521C7.3976 43.7521 6.99967 43.5873 6.70627 43.2939C6.41287 43.0005 6.24805 42.6025 6.24805 42.1876C6.24805 41.7727 6.41287 41.3748 6.70627 41.0814L41.0813 6.70636C41.2264 6.56085 41.3988 6.4454 41.5887 6.36663C41.7785 6.28786 41.982 6.24731 42.1875 6.24731C42.393 6.24731 42.5965 6.28786 42.7864 6.36663C42.9762 6.4454 43.1486 6.56085 43.2938 6.70636Z" fill="white"/>
<path fill-rule="evenodd" clip-rule="evenodd" d="M6.70611 6.70636C6.5606 6.8515 6.44516 7.02392 6.36639 7.21375C6.28762 7.40358 6.24707 7.60708 6.24707 7.81261C6.24707 8.01813 6.28762 8.22163 6.36639 8.41146C6.44516 8.60129 6.5606 8.77372 6.70611 8.91886L41.0811 43.2939C41.3745 43.5873 41.7724 43.7521 42.1874 43.7521C42.6023 43.7521 43.0002 43.5873 43.2936 43.2939C43.587 43.0005 43.7518 42.6025 43.7518 42.1876C43.7518 41.7727 43.587 41.3748 43.2936 41.0814L8.91861 6.70636C8.77347 6.56085 8.60105 6.4454 8.41122 6.36663C8.22139 6.28786 8.01789 6.24731 7.81236 6.24731C7.60684 6.24731 7.40334 6.28786 7.21351 6.36663C7.02368 6.4454 6.85126 6.56085 6.70611 6.70636Z" fill="white"/>
</svg>
