<svg width="25" height="19" viewBox="0 0 25 19" fill="none" xmlns="http://www.w3.org/2000/svg">
<path d="M9.375 9.5C10.6182 9.5 11.8105 8.99955 12.6896 8.10876C13.5686 7.21796 14.0625 6.00978 14.0625 4.75C14.0625 3.49022 13.5686 2.28204 12.6896 1.39124C11.8105 0.500445 10.6182 0 9.375 0C8.1318 0 6.93951 0.500445 6.06044 1.39124C5.18136 2.28204 4.6875 3.49022 4.6875 4.75C4.6875 6.00978 5.18136 7.21796 6.06044 8.10876C6.93951 8.99955 8.1318 9.5 9.375 9.5ZM1.5625 19C1.5625 19 0 19 0 17.4167C0 15.8333 1.5625 11.0833 9.375 11.0833C17.1875 11.0833 18.75 15.8333 18.75 17.4167C18.75 19 17.1875 19 17.1875 19H1.5625ZM17.1875 2.375C17.1875 2.16504 17.2698 1.96367 17.4163 1.81521C17.5628 1.66674 17.7615 1.58333 17.9688 1.58333H24.2188C24.426 1.58333 24.6247 1.66674 24.7712 1.81521C24.9177 1.96367 25 2.16504 25 2.375C25 2.58496 24.9177 2.78633 24.7712 2.93479C24.6247 3.08326 24.426 3.16667 24.2188 3.16667H17.9688C17.7615 3.16667 17.5628 3.08326 17.4163 2.93479C17.2698 2.78633 17.1875 2.58496 17.1875 2.375ZM17.9688 6.33333C17.7615 6.33333 17.5628 6.41674 17.4163 6.56521C17.2698 6.71367 17.1875 6.91504 17.1875 7.125C17.1875 7.33496 17.2698 7.53633 17.4163 7.68479C17.5628 7.83326 17.7615 7.91667 17.9688 7.91667H24.2188C24.426 7.91667 24.6247 7.83326 24.7712 7.68479C24.9177 7.53633 25 7.33496 25 7.125C25 6.91504 24.9177 6.71367 24.7712 6.56521C24.6247 6.41674 24.426 6.33333 24.2188 6.33333H17.9688ZM21.0938 11.0833C20.8865 11.0833 20.6878 11.1667 20.5413 11.3152C20.3948 11.4637 20.3125 11.665 20.3125 11.875C20.3125 12.085 20.3948 12.2863 20.5413 12.4348C20.6878 12.5833 20.8865 12.6667 21.0938 12.6667H24.2188C24.426 12.6667 24.6247 12.5833 24.7712 12.4348C24.9177 12.2863 25 12.085 25 11.875C25 11.665 24.9177 11.4637 24.7712 11.3152C24.6247 11.1667 24.426 11.0833 24.2188 11.0833H21.0938ZM21.0938 15.8333C20.8865 15.8333 20.6878 15.9167 20.5413 16.0652C20.3948 16.2137 20.3125 16.415 20.3125 16.625C20.3125 16.835 20.3948 17.0363 20.5413 17.1848C20.6878 17.3333 20.8865 17.4167 21.0938 17.4167H24.2188C24.426 17.4167 24.6247 17.3333 24.7712 17.1848C24.9177 17.0363 25 16.835 25 16.625C25 16.415 24.9177 16.2137 24.7712 16.0652C24.6247 15.9167 24.426 15.8333 24.2188 15.8333H21.0938Z" fill="#808080"/>
</svg>
