<svg width="19" height="20" viewBox="0 0 19 20" fill="none" xmlns="http://www.w3.org/2000/svg">
<path d="M11.4143 4.57512C11.0374 4.50184 10.6913 4.755 10.6196 5.14224C10.5478 5.52947 10.7891 5.90754 11.1557 5.98332C12.2595 6.20984 13.1118 7.10922 13.3278 8.27508V8.27592C13.3893 8.61152 13.67 8.85552 13.9932 8.85552C14.0366 8.85552 14.08 8.85136 14.1241 8.84303C14.4907 8.76558 14.732 8.38834 14.6602 8.00027C14.3378 6.25897 13.0645 4.91406 11.4143 4.57512Z" fill="#009BD9"/>
<path d="M11.3652 1.67336C11.1886 1.64671 11.0112 1.70167 10.8701 1.81992C10.725 1.93984 10.6343 2.11305 10.6146 2.30709C10.5728 2.69932 10.8417 3.05407 11.2138 3.09821C13.7801 3.39967 15.7749 5.50406 16.0634 8.21386C16.102 8.57695 16.3914 8.85093 16.7367 8.85093C16.7627 8.85093 16.788 8.84926 16.814 8.84593C16.9945 8.82511 17.1554 8.73101 17.2689 8.58111C17.3817 8.43122 17.4329 8.24468 17.4124 8.05397C17.0529 4.67296 14.567 2.04893 11.3652 1.67336Z" fill="#009BD9"/>
<path fill-rule="evenodd" clip-rule="evenodd" d="M8.73362 10.8103C11.8916 14.1336 12.6081 10.2889 14.6188 12.404C16.5573 14.444 17.6714 14.8527 15.2154 17.4373C14.9077 17.6975 12.9531 20.8286 6.08381 13.5997C-0.786341 6.37 2.18642 4.31037 2.43372 3.98662C4.89572 1.39487 5.2773 2.57449 7.2158 4.61444C9.22653 6.73041 5.5756 7.48701 8.73362 10.8103Z" fill="#009BD9"/>
</svg>
