<svg width="20" height="20" viewBox="0 0 20 20" fill="none" xmlns="http://www.w3.org/2000/svg">
<path d="M15.5129 3.41447C15.7894 3.14569 16.1573 2.99709 16.5391 3.00004C16.9208 3.00299 17.2865 3.15725 17.559 3.43027C17.8315 3.7033 17.9894 4.07372 17.9995 4.46339C18.0096 4.85306 17.871 5.23149 17.6131 5.51883L9.78171 15.5196C9.64705 15.6677 9.48452 15.7866 9.30384 15.8691C9.12317 15.9516 8.92806 15.996 8.73017 15.9997C8.53229 16.0035 8.3357 15.9664 8.15215 15.8908C7.96861 15.8152 7.80188 15.7026 7.66194 15.5597L2.46852 10.2567C2.3239 10.1191 2.20789 9.95311 2.12744 9.76873C2.04698 9.58435 2.00372 9.38531 2.00023 9.18349C1.99674 8.98166 2.0331 8.78119 2.10714 8.59402C2.18117 8.40686 2.29137 8.23684 2.43116 8.0941C2.57094 7.95137 2.73745 7.83885 2.92074 7.76325C3.10404 7.68765 3.30037 7.65052 3.49803 7.65408C3.69568 7.65764 3.89061 7.70182 4.07118 7.78397C4.25175 7.86613 4.41427 7.98458 4.54903 8.13226L8.65902 12.327L15.4756 3.45856C15.4879 3.44313 15.499 3.42841 15.5129 3.41447Z" fill="#009BD9"/>
</svg>
