<svg width="25" height="22" viewBox="0 0 25 22" fill="none" xmlns="http://www.w3.org/2000/svg">
<path d="M24.2188 17.2857H7.8125V16.5C7.8125 16.0679 7.46094 15.7143 7.03125 15.7143H5.46875C5.03906 15.7143 4.6875 16.0679 4.6875 16.5V17.2857H0.78125C0.351562 17.2857 0 17.6393 0 18.0714V19.6429C0 20.075 0.351562 20.4286 0.78125 20.4286H4.6875V21.2143C4.6875 21.6464 5.03906 22 5.46875 22H7.03125C7.46094 22 7.8125 21.6464 7.8125 21.2143V20.4286H24.2188C24.6484 20.4286 25 20.075 25 19.6429V18.0714C25 17.6393 24.6484 17.2857 24.2188 17.2857ZM24.2188 9.42857H20.3125V8.64286C20.3125 8.21071 19.9609 7.85714 19.5312 7.85714H17.9688C17.5391 7.85714 17.1875 8.21071 17.1875 8.64286V9.42857H0.78125C0.351562 9.42857 0 9.78214 0 10.2143V11.7857C0 12.2179 0.351562 12.5714 0.78125 12.5714H17.1875V13.3571C17.1875 13.7893 17.5391 14.1429 17.9688 14.1429H19.5312C19.9609 14.1429 20.3125 13.7893 20.3125 13.3571V12.5714H24.2188C24.6484 12.5714 25 12.2179 25 11.7857V10.2143C25 9.78214 24.6484 9.42857 24.2188 9.42857ZM24.2188 1.57143H14.0625V0.785714C14.0625 0.353571 13.7109 0 13.2812 0H11.7188C11.2891 0 10.9375 0.353571 10.9375 0.785714V1.57143H0.78125C0.351562 1.57143 0 1.925 0 2.35714V3.92857C0 4.36071 0.351562 4.71429 0.78125 4.71429H10.9375V5.5C10.9375 5.93214 11.2891 6.28571 11.7188 6.28571H13.2812C13.7109 6.28571 14.0625 5.93214 14.0625 5.5V4.71429H24.2188C24.6484 4.71429 25 4.36071 25 3.92857V2.35714C25 1.925 24.6484 1.57143 24.2188 1.57143Z" fill="#009BD9"/>
</svg>
