<svg width="25" height="14" viewBox="0 0 25 14" fill="none" xmlns="http://www.w3.org/2000/svg">
<path d="M21.25 4.97055H20.625L16.3758 0.746203C16.1415 0.51339 15.8444 0.325449 15.5065 0.196285C15.1685 0.0671198 14.7984 3.72821e-05 14.4234 0H6.06758C5.04531 0 4.12617 0.49488 3.74648 1.24978L1.875 5.04075C0.798438 5.26256 0 6.03331 0 6.95876V10.4381C0 10.7128 0.279687 10.9352 0.625 10.9352H2.5C2.5 12.5823 4.17891 13.9175 6.25 13.9175C8.32109 13.9175 10 12.5823 10 10.9352H15C15 12.5823 16.6789 13.9175 18.75 13.9175C20.8211 13.9175 22.5 12.5823 22.5 10.9352H24.375C24.7203 10.9352 25 10.7128 25 10.4381V7.95287C25 6.30576 23.3211 4.97055 21.25 4.97055ZM6.25 12.4264C5.21602 12.4264 4.375 11.7575 4.375 10.9352C4.375 10.1129 5.21602 9.44404 6.25 9.44404C7.28398 9.44404 8.125 10.1129 8.125 10.9352C8.125 11.7575 7.28398 12.4264 6.25 12.4264ZM9.0625 4.97055H4.56758L6.06758 1.98822H9.0625V4.97055ZM10.9375 4.97055V1.98822H14.4234L17.4234 4.97055H10.9375ZM18.75 12.4264C17.716 12.4264 16.875 11.7575 16.875 10.9352C16.875 10.1129 17.716 9.44404 18.75 9.44404C19.784 9.44404 20.625 10.1129 20.625 10.9352C20.625 11.7575 19.784 12.4264 18.75 12.4264Z" fill="#A4A4A4"/>
</svg>
