<svg width="29" height="29" viewBox="0 0 29 29" fill="none" xmlns="http://www.w3.org/2000/svg">
<path d="M16.4013 0.788487C15.3501 -0.262829 13.6463 -0.262829 12.5951 0.788487L0.788437 12.5977C-0.262812 13.649 -0.262812 15.351 0.788437 16.4005L12.5987 28.2115C13.6499 29.2628 15.3519 29.2628 16.4013 28.2115L28.2116 16.4005C29.2628 15.3492 29.2628 13.6472 28.2116 12.5977L16.4013 0.788487ZM14.4982 7.25045C15.4679 7.25045 16.2273 8.08788 16.1294 9.054L15.4951 15.4108C15.4737 15.6606 15.3595 15.8932 15.1749 16.0627C14.9903 16.2322 14.7488 16.3263 14.4982 16.3263C14.2476 16.3263 14.0061 16.2322 13.8215 16.0627C13.6369 15.8932 13.5226 15.6606 13.5013 15.4108L12.8669 9.054C12.8442 8.82604 12.8694 8.59583 12.941 8.3782C13.0126 8.16057 13.1289 7.96036 13.2826 7.79045C13.4363 7.62054 13.6239 7.48471 13.8332 7.39171C14.0426 7.2987 14.2691 7.25058 14.4982 7.25045ZM14.5018 18.1261C14.9825 18.1261 15.4435 18.3171 15.7834 18.657C16.1234 18.997 16.3143 19.458 16.3143 19.9387C16.3143 20.4195 16.1234 20.8805 15.7834 21.2205C15.4435 21.5604 14.9825 21.7514 14.5018 21.7514C14.0211 21.7514 13.5601 21.5604 13.2202 21.2205C12.8803 20.8805 12.6893 20.4195 12.6893 19.9387C12.6893 19.458 12.8803 18.997 13.2202 18.657C13.5601 18.3171 14.0211 18.1261 14.5018 18.1261Z" fill="#FFCC00"/>
</svg>
