<svg width="30" height="30" viewBox="0 0 30 30" fill="none" xmlns="http://www.w3.org/2000/svg">
<g clip-path="url(#clip0_285_1840)">
<path d="M15 28.125C11.519 28.125 8.18064 26.7422 5.71922 24.2808C3.25781 21.8194 1.875 18.481 1.875 15C1.875 11.519 3.25781 8.18064 5.71922 5.71922C8.18064 3.25781 11.519 1.875 15 1.875C18.481 1.875 21.8194 3.25781 24.2808 5.71922C26.7422 8.18064 28.125 11.519 28.125 15C28.125 18.481 26.7422 21.8194 24.2808 24.2808C21.8194 26.7422 18.481 28.125 15 28.125ZM15 30C18.9782 30 22.7936 28.4196 25.6066 25.6066C28.4196 22.7936 30 18.9782 30 15C30 11.0218 28.4196 7.20644 25.6066 4.3934C22.7936 1.58035 18.9782 0 15 0C11.0218 0 7.20644 1.58035 4.3934 4.3934C1.58035 7.20644 0 11.0218 0 15C0 18.9782 1.58035 22.7936 4.3934 25.6066C7.20644 28.4196 11.0218 30 15 30Z" fill="#FFCC00"/>
<path d="M12.0138 9.49985C11.9754 9.31024 12.0176 9.11874 12.1376 8.93771C12.2576 8.75668 12.4528 8.59014 12.7107 8.44882C12.9685 8.30751 13.2832 8.19455 13.6344 8.11725C13.9857 8.03994 14.3657 8 14.75 8C15.1343 8 15.5143 8.03994 15.8656 8.11725C16.2168 8.19455 16.5315 8.30751 16.7893 8.44882C17.0472 8.59014 17.2424 8.75668 17.3624 8.93771C17.4824 9.11874 17.5246 9.31024 17.4862 9.49985L16.4193 18.159C16.378 18.3644 16.1844 18.5548 15.8759 18.6933C15.5674 18.8318 15.1661 18.9085 14.75 18.9085C14.3339 18.9085 13.9326 18.8318 13.6241 18.6933C13.3156 18.5548 13.122 18.3644 13.0808 18.159L12.0138 9.49985ZM12 21.6363C12 21.2747 12.2897 20.9278 12.8055 20.6721C13.3212 20.4164 14.0207 20.2727 14.75 20.2727C15.4793 20.2727 16.1788 20.4164 16.6945 20.6721C17.2103 20.9278 17.5 21.2747 17.5 21.6363C17.5 21.998 17.2103 22.3449 16.6945 22.6006C16.1788 22.8563 15.4793 23 14.75 23C14.0207 23 13.3212 22.8563 12.8055 22.6006C12.2897 22.3449 12 21.998 12 21.6363Z" fill="#FFCC00"/>
</g>
<defs>
<clipPath id="clip0_285_1840">
<rect width="30" height="30" fill="white"/>
</clipPath>
</defs>
</svg>
