<svg width="20" height="16" viewBox="0 0 20 16" fill="none" xmlns="http://www.w3.org/2000/svg">
<path d="M19.6212 5.24354C19.7735 5.11534 20.0001 5.23526 20.0001 5.43789V13.8945C20.0001 14.9904 19.1603 15.8795 18.1251 15.8795H1.87501C0.839848 15.8795 0 14.9904 0 13.8945V5.44203C0 5.23526 0.222657 5.11948 0.378908 5.24767C1.25391 5.96721 2.41407 6.88111 6.39847 9.94535C7.22269 10.5822 8.61332 11.922 10 11.9137C11.3946 11.9261 12.8126 10.5574 13.6055 9.94535C17.5899 6.88111 18.7462 5.96307 19.6212 5.24354ZM10 10.5863C10.9063 10.6029 12.211 9.37882 12.8672 8.87431C18.0509 4.89204 18.4454 4.54467 19.6407 3.55221C19.8673 3.36612 20.0001 3.07665 20.0001 2.77064V1.98493C20.0001 0.889085 19.1603 0 18.1251 0H1.87501C0.839848 0 0 0.889085 0 1.98493V2.77064C0 3.07665 0.132813 3.36198 0.359377 3.55221C1.5547 4.54054 1.94923 4.89204 7.13285 8.87431C7.7891 9.37882 9.09379 10.6029 10 10.5863Z" fill="#FFC542"/>
</svg>
