<svg width="40" height="28" viewBox="0 0 40 28" fill="none" xmlns="http://www.w3.org/2000/svg">
<path d="M19.0751 22.536C12.2642 13.0737 11 12.1025 11 8.625C11 3.86153 15.0294 0 20 0C24.9706 0 29 3.86153 29 8.625C29 12.1025 27.7358 13.0737 20.9249 22.536C20.478 23.1547 19.522 23.1547 19.0751 22.536ZM20 12.2187C22.0711 12.2187 23.75 10.6098 23.75 8.625C23.75 6.64022 22.0711 5.03125 20 5.03125C17.9289 5.03125 16.25 6.64022 16.25 8.625C16.25 10.6098 17.9289 12.2187 20 12.2187Z" fill="black"/>
</svg>
