<svg width="40" height="24" viewBox="0 0 40 24" fill="none" xmlns="http://www.w3.org/2000/svg">
<path d="M18.0625 20.125C18.0625 20.125 16.625 20.125 16.625 18.6875C16.625 17.25 18.0625 12.9375 23.8125 12.9375C29.5625 12.9375 31 17.25 31 18.6875C31 20.125 29.5625 20.125 29.5625 20.125H18.0625ZM23.8125 11.5C24.9562 11.5 26.0531 11.0456 26.8619 10.2369C27.6706 9.42815 28.125 8.33125 28.125 7.1875C28.125 6.04375 27.6706 4.94685 26.8619 4.1381C26.0531 3.32935 24.9562 2.875 23.8125 2.875C22.6688 2.875 21.5719 3.32935 20.7631 4.1381C19.9544 4.94685 19.5 6.04375 19.5 7.1875C19.5 8.33125 19.9544 9.42815 20.7631 10.2369C21.5719 11.0456 22.6688 11.5 23.8125 11.5Z" fill="#009BD9"/>
<path fill-rule="evenodd" clip-rule="evenodd" d="M15.498 20.1251C15.2849 19.6764 15.1786 19.1843 15.1875 18.6876C15.1875 16.7398 16.165 14.7345 17.9705 13.3401C17.0693 13.0625 16.1304 12.9267 15.1875 12.9376C9.4375 12.9376 8 17.2501 8 18.6876C8 20.1251 9.4375 20.1251 9.4375 20.1251H15.498Z" fill="#009BD9"/>
<path d="M14.4688 11.5C15.4219 11.5 16.336 11.1214 17.0099 10.4474C17.6839 9.77346 18.0625 8.85937 18.0625 7.90625C18.0625 6.95313 17.6839 6.03904 17.0099 5.36509C16.336 4.69113 15.4219 4.3125 14.4688 4.3125C13.5156 4.3125 12.6015 4.69113 11.9276 5.36509C11.2536 6.03904 10.875 6.95313 10.875 7.90625C10.875 8.85937 11.2536 9.77346 11.9276 10.4474C12.6015 11.1214 13.5156 11.5 14.4688 11.5Z" fill="#009BD9"/>
</svg>
