<svg width="11" height="20" viewBox="0 0 11 20" fill="none" xmlns="http://www.w3.org/2000/svg">
<path d="M0 9.76278C0 9.4816 0.101227 9.2229 0.314928 9.02045L9.23415 0.292434C9.42536 0.101227 9.6728 0 9.96524 0C10.5501 0 11 0.43865 11 1.02352C11 1.3047 10.8763 1.56339 10.6963 1.7546L2.50818 9.76278L10.6963 17.771C10.8763 17.9622 11 18.2096 11 18.502C11 19.0869 10.5501 19.5256 9.96524 19.5256C9.6728 19.5256 9.42536 19.4243 9.23415 19.2219L0.314928 10.5051C0.101227 10.2914 0 10.044 0 9.76278Z" fill="#009BD9"/>
</svg>
