<svg width="24" height="25" viewBox="0 0 24 25" fill="none" xmlns="http://www.w3.org/2000/svg">
<path d="M23.1817 15.504L21.0749 14.2641C21.2876 13.0948 21.2876 11.8952 21.0749 10.7258L23.1817 9.4859C23.424 9.34477 23.5328 9.05243 23.4536 8.78026C22.9047 6.98591 21.97 5.36293 20.7485 4.01213C20.5606 3.80548 20.254 3.75507 20.0166 3.8962L17.9099 5.13612C17.0247 4.35991 16.0059 3.76011 14.9031 3.36697V0.892181C14.9031 0.609924 14.7103 0.362949 14.4383 0.302465C12.6233 -0.110839 10.7639 -0.0906782 9.03794 0.302465C8.76594 0.362949 8.57308 0.609924 8.57308 0.892181V3.37201C7.47521 3.77019 6.45646 4.36999 5.5663 5.14116L3.46452 3.90124C3.2222 3.76011 2.92053 3.80548 2.73261 4.01717C1.51111 5.36293 0.576437 6.98591 0.0275021 8.7853C-0.056569 9.05747 0.0571742 9.34981 0.299497 9.49094L2.40622 10.7309C2.19357 11.9002 2.19357 13.0998 2.40622 14.2691L0.299497 15.5091C0.0571742 15.6502 -0.0516236 15.9425 0.0275021 16.2147C0.576437 18.0091 1.51111 19.632 2.73261 20.9828C2.92053 21.1895 3.22715 21.2399 3.46452 21.0988L5.57125 19.8588C6.45646 20.635 7.47521 21.2348 8.57802 21.628V24.1078C8.57802 24.3901 8.77089 24.6371 9.04288 24.6975C10.8578 25.1108 12.7173 25.0907 14.4432 24.6975C14.7152 24.6371 14.9081 24.3901 14.9081 24.1078V21.628C16.0059 21.2298 17.0247 20.63 17.9149 19.8588L20.0216 21.0988C20.2639 21.2399 20.5656 21.1945 20.7535 20.9828C21.975 19.6371 22.9097 18.0141 23.4586 16.2147C23.5328 15.9375 23.424 15.6451 23.1817 15.504ZM11.7381 16.5272C9.5572 16.5272 7.78182 14.7177 7.78182 12.495C7.78182 10.2722 9.5572 8.46272 11.7381 8.46272C13.919 8.46272 15.6944 10.2722 15.6944 12.495C15.6944 14.7177 13.919 16.5272 11.7381 16.5272Z" fill="black"/>
</svg>
