<svg width="30" height="30" viewBox="0 0 30 30" fill="none" xmlns="http://www.w3.org/2000/svg">
<mask id="path-1-inside-1_258_1285" fill="white">
<path d="M22.0171 19.3935C23.8326 16.9158 24.6457 13.8439 24.2938 10.7923C23.942 7.74072 22.451 4.93455 20.1192 2.9352C17.7875 0.93585 14.7869 -0.109228 11.7178 0.00904609C8.64871 0.12732 5.73744 1.40022 3.56643 3.5731C1.39542 5.74597 0.124773 8.65856 0.00871192 11.7282C-0.10735 14.7978 0.939728 17.798 2.94046 20.1287C4.9412 22.4593 7.74804 23.9485 10.7994 24.2983C13.8508 24.648 16.9218 23.8326 19.3978 22.015H19.396C19.4522 22.0901 19.5122 22.1613 19.5797 22.2307L26.7982 29.4502C27.1497 29.8021 27.6267 29.9998 28.124 30C28.6214 30.0002 29.0984 29.8027 29.4503 29.4511C29.8021 29.0995 29.9998 28.6225 30 28.1251C30.0002 27.6277 29.8028 27.1505 29.4512 26.7987L22.2327 19.5792C22.1657 19.5113 22.0936 19.4505 22.0171 19.3935ZM22.5008 12.1853C22.5008 13.5397 22.2341 14.8808 21.7159 16.1321C21.1976 17.3834 20.4381 18.5204 19.4805 19.4781C18.5229 20.4358 17.3861 21.1955 16.135 21.7138C14.8839 22.2321 13.5429 22.4988 12.1887 22.4988C10.8345 22.4988 9.49357 22.2321 8.24245 21.7138C6.99133 21.1955 5.85453 20.4358 4.89696 19.4781C3.93939 18.5204 3.17981 17.3834 2.66158 16.1321C2.14334 14.8808 1.87661 13.5397 1.87661 12.1853C1.87661 9.44996 2.96306 6.82666 4.89696 4.89249C6.83086 2.95832 9.45378 1.87172 12.1887 1.87172C14.9237 1.87172 17.5466 2.95832 19.4805 4.89249C21.4144 6.82666 22.5008 9.44996 22.5008 12.1853Z"/>
</mask>
<path d="M22.0171 19.3935C23.8326 16.9158 24.6457 13.8439 24.2938 10.7923C23.942 7.74072 22.451 4.93455 20.1192 2.9352C17.7875 0.93585 14.7869 -0.109228 11.7178 0.00904609C8.64871 0.12732 5.73744 1.40022 3.56643 3.5731C1.39542 5.74597 0.124773 8.65856 0.00871192 11.7282C-0.10735 14.7978 0.939728 17.798 2.94046 20.1287C4.9412 22.4593 7.74804 23.9485 10.7994 24.2983C13.8508 24.648 16.9218 23.8326 19.3978 22.015H19.396C19.4522 22.0901 19.5122 22.1613 19.5797 22.2307L26.7982 29.4502C27.1497 29.8021 27.6267 29.9998 28.124 30C28.6214 30.0002 29.0984 29.8027 29.4503 29.4511C29.8021 29.0995 29.9998 28.6225 30 28.1251C30.0002 27.6277 29.8028 27.1505 29.4512 26.7987L22.2327 19.5792C22.1657 19.5113 22.0936 19.4505 22.0171 19.3935ZM22.5008 12.1853C22.5008 13.5397 22.2341 14.8808 21.7159 16.1321C21.1976 17.3834 20.4381 18.5204 19.4805 19.4781C18.5229 20.4358 17.3861 21.1955 16.135 21.7138C14.8839 22.2321 13.5429 22.4988 12.1887 22.4988C10.8345 22.4988 9.49357 22.2321 8.24245 21.7138C6.99133 21.1955 5.85453 20.4358 4.89696 19.4781C3.93939 18.5204 3.17981 17.3834 2.66158 16.1321C2.14334 14.8808 1.87661 13.5397 1.87661 12.1853C1.87661 9.44996 2.96306 6.82666 4.89696 4.89249C6.83086 2.95832 9.45378 1.87172 12.1887 1.87172C14.9237 1.87172 17.5466 2.95832 19.4805 4.89249C21.4144 6.82666 22.5008 9.44996 22.5008 12.1853Z" fill="white"/>
<path d="M22.0171 19.3935L10.7242 11.1189L2.51314 22.325L13.6556 30.6223L22.0171 19.3935ZM19.3978 22.015L27.6821 33.301L62.13 8.01505H19.3978V22.015ZM19.396 22.015V8.01505H-8.60168L8.19539 30.4143L19.396 22.015ZM19.5797 22.2307L9.54485 31.993L9.61171 32.0617L9.67951 32.1295L19.5797 22.2307ZM26.7982 29.4502L36.7019 19.5549L36.6984 19.5514L26.7982 29.4502ZM29.4512 26.7987L39.3549 16.9034L39.3514 16.8999L29.4512 26.7987ZM22.2327 19.5792L12.2725 29.4175L12.3024 29.4478L12.3325 29.478L22.2327 19.5792ZM22.5008 12.1853H36.5008H22.5008ZM1.87661 12.1853H-12.1234H1.87661ZM12.1887 1.87172V15.8717V1.87172ZM33.31 27.6682C37.2108 22.3446 38.9577 15.7446 38.2017 9.18853L10.386 12.3961C10.3338 11.9432 10.4544 11.487 10.7242 11.1189L33.31 27.6682ZM38.2017 9.18853C37.4457 2.63247 34.2424 -3.3968 29.2322 -7.69281L11.0063 13.5632C10.6596 13.2659 10.4382 12.849 10.386 12.3961L38.2017 9.18853ZM29.2322 -7.69281C24.2218 -11.9889 17.774 -14.2347 11.1787 -13.9806L12.2569 13.9987C11.7998 14.0163 11.3531 13.8606 11.0063 13.5632L29.2322 -7.69281ZM11.1787 -13.9806C4.58335 -13.7264 -1.67247 -10.991 -6.33731 -6.32216L13.4702 13.4684C13.1473 13.7914 12.7141 13.981 12.2569 13.9987L11.1787 -13.9806ZM-6.33731 -6.32216C-11.0021 -1.65338 -13.7319 4.60444 -13.9813 11.1992L13.9987 12.2571C13.9815 12.7127 13.7929 13.1453 13.4702 13.4684L-6.33731 -6.32216ZM-13.9813 11.1992C-14.2306 17.794 -11.9811 24.24 -7.68229 29.2477L13.5632 11.0096C13.8606 11.356 14.0159 11.8016 13.9987 12.2571L-13.9813 11.1992ZM-7.68229 29.2477C-3.38341 34.2555 2.64789 37.4556 9.20518 38.2072L12.3937 10.3893C12.8482 10.4414 13.2658 10.6632 13.5632 11.0096L-7.68229 29.2477ZM9.20518 38.2072C15.7625 38.9588 22.3615 37.2064 27.6821 33.301L11.1136 10.7291C11.482 10.4587 11.9392 10.3372 12.3937 10.3893L9.20518 38.2072ZM19.3978 8.01505H19.396V36.015H19.3978V8.01505ZM8.19539 30.4143C8.57272 30.9175 9.01814 31.4515 9.54485 31.993L29.6145 12.4684C30.0063 12.8711 30.3317 13.2626 30.5965 13.6158L8.19539 30.4143ZM9.67951 32.1295L16.898 39.349L36.6984 19.5514L29.4799 12.3319L9.67951 32.1295ZM16.8945 39.3455C19.8705 42.324 23.9081 43.9985 28.1191 44L28.129 16C31.3453 16.0011 34.429 17.2801 36.7019 19.5549L16.8945 39.3455ZM28.1191 44C32.3301 44.0015 36.3688 42.3299 39.347 39.3534L19.5536 19.5488C21.8281 17.2756 24.9127 15.9989 28.129 16L28.1191 44ZM39.347 39.3534C42.325 36.3771 43.9985 32.3399 44 28.13L16 28.1201C16.0011 24.9052 17.2792 21.8219 19.5536 19.5488L39.347 39.3534ZM44 28.13C44.0015 23.9202 42.3308 19.8818 39.3549 16.9034L19.5475 36.694C17.2747 34.4193 15.9989 31.3351 16 28.1201L44 28.13ZM39.3514 16.8999L32.1329 9.68037L12.3325 29.478L19.551 36.6975L39.3514 16.8999ZM32.193 9.74082C31.5354 9.07512 30.9046 8.55647 30.3786 8.16477L13.6556 30.6223C13.2826 30.3445 12.7959 29.9475 12.2725 29.4175L32.193 9.74082ZM8.50084 12.1853C8.50084 11.7015 8.59612 11.2223 8.78129 10.7752L34.6505 21.489C35.8721 18.5393 36.5008 15.3779 36.5008 12.1853H8.50084ZM8.78129 10.7752C8.96647 10.3281 9.23794 9.92168 9.5803 9.57928L29.3807 29.3769C31.6382 27.1191 33.4288 24.4388 34.6505 21.489L8.78129 10.7752ZM9.5803 9.57928C9.92266 9.23687 10.3292 8.96515 10.7768 8.77973L21.4932 34.6478C24.443 33.4258 27.1232 31.6347 29.3807 29.3769L9.5803 9.57928ZM10.7768 8.77973C11.2244 8.59431 11.7042 8.49885 12.1887 8.49885V36.4988C15.3817 36.4988 18.5434 35.8699 21.4932 34.6478L10.7768 8.77973ZM12.1887 8.49885C12.6733 8.49885 13.1531 8.59431 13.6007 8.77973L2.88424 34.6478C5.83407 35.8699 8.99575 36.4988 12.1887 36.4988V8.49885ZM13.6007 8.77973C14.0482 8.96515 14.4548 9.23687 14.7972 9.57928L-5.00323 29.3769C-2.74573 31.6347 -0.0655829 33.4258 2.88424 34.6478L13.6007 8.77973ZM14.7972 9.57928C15.1395 9.92168 15.411 10.3281 15.5962 10.7752L-10.273 21.489C-9.05136 24.4388 -7.26073 27.1191 -5.00323 29.3769L14.7972 9.57928ZM15.5962 10.7752C15.7813 11.2223 15.8766 11.7014 15.8766 12.1853H-12.1234C-12.1234 15.3779 -11.4946 18.5393 -10.273 21.489L15.5962 10.7752ZM15.8766 12.1853C15.8766 13.1624 15.4885 14.0998 14.7972 14.7913L-5.00323 -5.00631C-9.56242 -0.446477 -12.1234 5.73756 -12.1234 12.1853H15.8766ZM14.7972 14.7913C14.1057 15.4828 13.1675 15.8717 12.1887 15.8717V-12.1283C5.74012 -12.1283 -0.443977 -9.5662 -5.00323 -5.00631L14.7972 14.7913ZM12.1887 15.8717C11.21 15.8717 10.2718 15.4828 9.5803 14.7913L29.3807 -5.00631C24.8214 -9.5662 18.6373 -12.1283 12.1887 -12.1283V15.8717ZM9.5803 14.7913C8.8889 14.0998 8.50084 13.1623 8.50084 12.1853H36.5008C36.5008 5.73756 33.9399 -0.446474 29.3807 -5.00631L9.5803 14.7913Z" fill="white" mask="url(#path-1-inside-1_258_1285)"/>
</svg>
