<svg width="25" height="26" viewBox="0 0 25 26" fill="none" xmlns="http://www.w3.org/2000/svg">
<path d="M24.6601 21.6179L19.7916 16.7494C19.5718 16.5296 19.274 16.4075 18.9614 16.4075H18.1655C19.5132 14.6838 20.3141 12.5156 20.3141 10.157C20.3141 4.54625 15.7678 0 10.157 0C4.54625 0 0 4.54625 0 10.157C0 15.7678 4.54625 20.3141 10.157 20.3141C12.5156 20.3141 14.6838 19.5132 16.4075 18.1655V18.9614C16.4075 19.274 16.5296 19.5718 16.7494 19.7916L21.6179 24.6601C22.0769 25.1191 22.8192 25.1191 23.2733 24.6601L24.6552 23.2782C25.1143 22.8192 25.1143 22.0769 24.6601 21.6179ZM10.157 16.4075C6.70463 16.4075 3.90656 13.6143 3.90656 10.157C3.90656 6.70463 6.69974 3.90656 10.157 3.90656C13.6095 3.90656 16.4075 6.69974 16.4075 10.157C16.4075 13.6095 13.6143 16.4075 10.157 16.4075Z" fill="#8A8A8A"/>
</svg>
