<svg width="9" height="14" viewBox="0 0 9 14" fill="none" xmlns="http://www.w3.org/2000/svg">
<path d="M0.339407 1.76842C0.142275 1.56842 0.0327582 1.30526 0.0437102 1.03158C0.0437102 0.757893 0.153227 0.505261 0.36131 0.305261C0.558443 0.115787 0.832237 -2.5855e-06 1.11698 -2.5241e-06C1.40173 -2.4627e-06 1.67552 0.0947356 1.88361 0.284209L8.0823 6.2421C8.18087 6.33684 8.25753 6.45263 8.31229 6.57895C8.36705 6.70526 8.3999 6.8421 8.3999 6.97895C8.3999 7.11579 8.36705 7.25263 8.31229 7.38947C8.25753 7.51579 8.18087 7.63158 8.0823 7.72632L1.88361 13.6842C1.78504 13.7789 1.66457 13.8632 1.53315 13.9158C1.39078 13.9684 1.2484 14 1.10603 14C0.963657 14 0.810333 13.9789 0.678912 13.9263C0.54749 13.8737 0.427021 13.7895 0.317504 13.6947C0.218938 13.6 0.142275 13.4737 0.0875168 13.3474C0.0218058 13.2211 -9.72423e-05 13.0842 -9.72371e-05 12.9368C-9.72322e-05 12.8 0.0327578 12.6632 0.0875168 12.5368C0.142275 12.4105 0.229889 12.2947 0.339407 12.1895L5.76053 6.97895L4.73106 6L0.339407 1.76842Z" fill="#181725"/>
</svg>
