<svg width="20" height="10" viewBox="0 0 20 10" fill="none" xmlns="http://www.w3.org/2000/svg">
<path fill-rule="evenodd" clip-rule="evenodd" d="M0.225964 0.209794C0.297411 0.143292 0.382286 0.0905301 0.475729 0.0545301C0.569172 0.0185301 0.669347 0 0.770516 0C0.871684 0 0.971859 0.0185301 1.0653 0.0545301C1.15875 0.0905301 1.24362 0.143292 1.31507 0.209794L10.0002 8.27488L18.6853 0.209794C18.7568 0.1434 18.8417 0.0907329 18.9352 0.0548005C19.0286 0.0188681 19.1288 0.000373881 19.2299 0.000373881C19.331 0.000373881 19.4312 0.0188681 19.5246 0.0548005C19.618 0.0907329 19.7029 0.1434 19.7744 0.209794C19.846 0.276189 19.9027 0.35501 19.9414 0.441759C19.9801 0.528507 20 0.621484 20 0.71538C20 0.809276 19.9801 0.902252 19.9414 0.989001C19.9027 1.07575 19.846 1.15457 19.7744 1.22097L10.5448 9.79021C10.4733 9.85671 10.3884 9.90947 10.295 9.94547C10.2015 9.98147 10.1014 10 10.0002 10C9.89903 10 9.79886 9.98147 9.70542 9.94547C9.61197 9.90947 9.5271 9.85671 9.45565 9.79021L0.225964 1.22097C0.154337 1.15463 0.0975082 1.07583 0.0587336 0.989072C0.019959 0.902316 0 0.809309 0 0.71538C0 0.62145 0.019959 0.528444 0.0587336 0.441687C0.0975082 0.35493 0.154337 0.276128 0.225964 0.209794Z" fill="black"/>
</svg>
