<svg width="20" height="20" viewBox="0 0 20 20" fill="none" xmlns="http://www.w3.org/2000/svg">
<path d="M16.5038 10.5932L17.981 3.28075C18.0877 2.75277 17.731 2.25 17.2497 2.25H4.97525L4.68881 0.674648C4.61744 0.281988 4.31031 0 3.95403 0H0.75C0.335781 0 0 0.377754 0 0.84375V1.40625C0 1.87225 0.335781 2.25 0.75 2.25H2.93384L5.1291 14.3239C4.60391 14.6637 4.25 15.3008 4.25 16.0312C4.25 17.1186 5.0335 18 6 18C6.9665 18 7.75 17.1186 7.75 16.0312C7.75 15.4802 7.54853 14.9824 7.22425 14.625H13.7757C13.4515 14.9824 13.25 15.4802 13.25 16.0312C13.25 17.1186 14.0335 18 15 18C15.9665 18 16.75 17.1186 16.75 16.0312C16.75 15.2518 16.3473 14.5782 15.7632 14.2592L15.9356 13.4057C16.0422 12.8778 15.6855 12.375 15.2042 12.375H6.81616L6.61163 11.25H15.7724C16.1226 11.25 16.4262 10.9774 16.5038 10.5932Z" fill="white"/>
</svg>
