<svg width="10" height="20" viewBox="0 0 10 20" fill="none" xmlns="http://www.w3.org/2000/svg">
<path fill-rule="evenodd" clip-rule="evenodd" d="M0.209794 19.774C0.143292 19.7026 0.0905301 19.6177 0.0545301 19.5243C0.0185301 19.4308 0 19.3307 0 19.2295C0 19.1283 0.0185301 19.0281 0.0545301 18.9347C0.0905301 18.8413 0.143292 18.7564 0.209794 18.6849L8.27488 9.9998L0.209794 1.31466C0.1434 1.24315 0.0907329 1.15826 0.0548005 1.06482C0.0188681 0.971388 0.000373881 0.871244 0.000373881 0.770111C0.000373881 0.66898 0.0188681 0.568836 0.0548005 0.475403C0.0907329 0.381968 0.1434 0.297071 0.209794 0.225561C0.276189 0.154049 0.35501 0.0973225 0.441759 0.0586205C0.528507 0.0199184 0.621484 0 0.71538 0C0.809276 0 0.902252 0.0199184 0.989001 0.0586205C1.07575 0.0973225 1.15457 0.154049 1.22097 0.225561L9.79021 9.45525C9.85671 9.52669 9.90947 9.61157 9.94547 9.70501C9.98147 9.79846 10 9.89863 10 9.9998C10 10.101 9.98147 10.2011 9.94547 10.2946C9.90947 10.388 9.85671 10.4729 9.79021 10.5443L1.22097 19.774C1.15463 19.8457 1.07583 19.9025 0.989072 19.9413C0.902316 19.98 0.809309 20 0.71538 20C0.62145 20 0.528444 19.98 0.441687 19.9413C0.35493 19.9025 0.276128 19.8457 0.209794 19.774Z" fill="white"/>
</svg>
