<svg width="20" height="25" viewBox="0 0 20 25" fill="none" xmlns="http://www.w3.org/2000/svg">
<path d="M10 12.5C13.1562 12.5 15.7143 9.70215 15.7143 6.25C15.7143 2.79785 13.1562 0 10 0C6.84375 0 4.28571 2.79785 4.28571 6.25C4.28571 9.70215 6.84375 12.5 10 12.5ZM14 14.0625H13.2545C12.2634 14.5605 11.1607 14.8438 10 14.8438C8.83929 14.8438 7.74107 14.5605 6.74554 14.0625H6C2.6875 14.0625 0 17.002 0 20.625V22.6562C0 23.9502 0.959821 25 2.14286 25H17.8571C19.0402 25 20 23.9502 20 22.6562V20.625C20 17.002 17.3125 14.0625 14 14.0625Z" fill="black"/>
</svg>
