<svg width="25" height="18" viewBox="0 0 25 18" fill="none" xmlns="http://www.w3.org/2000/svg">
<path d="M24.2636 0.866297C22.7484 0.238753 21.232 4.63912e-08 19.7164 4.63912e-08C14.9052 -0.00038566 10.0943 2.4045 5.2831 2.4045C4.07648 2.4045 2.87065 2.2533 1.66403 1.87531C1.52849 1.83288 1.39255 1.81282 1.25974 1.81282C0.587489 1.81282 0 2.32658 0 3.03975V15.2767C0 15.7638 0.282416 16.2255 0.735923 16.413C2.25113 17.0409 3.7675 17.2797 5.2831 17.2797C10.0943 17.2797 14.9056 14.8748 19.7168 14.8748C20.9234 14.8748 22.1293 15.026 23.3359 15.404C23.4714 15.4464 23.6074 15.4665 23.7402 15.4665C24.4124 15.4665 24.9999 14.9527 24.9999 14.2395V2.00298C24.9995 1.51544 24.7171 1.05414 24.2636 0.866297ZM1.87496 3.86555C2.66089 4.05995 3.48118 4.15753 4.32492 4.20999C4.09523 5.34358 3.08588 6.19792 1.87496 6.19792V3.86555ZM1.87496 14.8582V13.0153C3.21752 13.0153 4.30382 14.0671 4.36359 15.3835C3.48353 15.3137 2.66089 15.1401 1.87496 14.8582ZM12.4998 12.3426C10.7736 12.3426 9.37482 10.6845 9.37482 8.63983C9.37482 6.59481 10.774 4.93705 12.4998 4.93705C14.2255 4.93705 15.6247 6.59481 15.6247 8.63983C15.6247 10.6852 14.2251 12.3426 12.4998 12.3426ZM23.1245 13.4141C22.4402 13.2448 21.7297 13.1499 21.0027 13.0886C21.232 12.0826 22.0769 11.3189 23.1245 11.1878V13.4141ZM23.1245 4.30719C21.9179 4.15638 20.9816 3.16164 20.9445 1.93316C21.7078 2.01686 22.4324 2.17346 23.1245 2.42147V4.30719Z" fill="#808080"/>
</svg>
