<svg width="27" height="12" viewBox="0 0 27 12" fill="none" xmlns="http://www.w3.org/2000/svg">
<path fill-rule="evenodd" clip-rule="evenodd" d="M0.304522 0.251753C0.400807 0.171951 0.51519 0.108636 0.641119 0.0654361C0.767049 0.0222361 0.90205 0 1.03839 0C1.17473 0 1.30973 0.0222361 1.43566 0.0654361C1.56159 0.108636 1.67597 0.171951 1.77226 0.251753L13.4768 9.92985L25.1814 0.251753C25.2778 0.17208 25.3922 0.108879 25.5181 0.0657606C25.644 0.0226417 25.779 0.000448657 25.9153 0.000448657C26.0516 0.000448657 26.1865 0.0226417 26.3124 0.0657606C26.4384 0.108879 26.5528 0.17208 26.6491 0.251753C26.7455 0.331426 26.822 0.426012 26.8741 0.53011C26.9263 0.634208 26.9531 0.745781 26.9531 0.858456C26.9531 0.971131 26.9263 1.0827 26.8741 1.1868C26.822 1.2909 26.7455 1.38548 26.6491 1.46516L14.2107 11.7482C14.1144 11.828 14 11.8914 13.8741 11.9346C13.7482 11.9778 13.6132 12 13.4768 12C13.3405 12 13.2055 11.9778 13.0796 11.9346C12.9536 11.8914 12.8393 11.828 12.743 11.7482L0.304522 1.46516C0.207993 1.38556 0.131408 1.29099 0.0791527 1.18689C0.0268978 1.08278 0 0.971171 0 0.858456C0 0.74574 0.0268978 0.634132 0.0791527 0.530024C0.131408 0.425917 0.207993 0.331354 0.304522 0.251753Z" fill="#009BD9"/>
</svg>
