<svg width="40" height="24" viewBox="0 0 40 24" fill="none" xmlns="http://www.w3.org/2000/svg">
<path d="M22.4434 10.4848L17.5674 9.06523C17.003 8.90352 16.6102 8.37793 16.6102 7.79395C16.6102 7.06172 17.2062 6.46875 17.9421 6.46875H20.9355C21.4863 6.46875 22.0281 6.63496 22.4796 6.94043C22.755 7.12461 23.1252 7.07969 23.36 6.85059L24.9311 5.32324C25.2517 5.01328 25.2065 4.49668 24.8499 4.22266C23.7437 3.36016 22.3622 2.87949 20.9445 2.875V0.71875C20.9445 0.323437 20.6194 0 20.2221 0H18.7774C18.3801 0 18.055 0.323437 18.055 0.71875V2.875H17.9421C15.0662 2.875 12.7546 5.33223 13.0209 8.24766C13.2106 10.3186 14.7998 12.0031 16.8044 12.5871L21.4321 13.9348C21.9965 14.101 22.3893 14.6221 22.3893 15.2061C22.3893 15.9383 21.7933 16.5312 21.0574 16.5312H18.064C17.5132 16.5312 16.9714 16.365 16.5199 16.0596C16.2445 15.8754 15.8743 15.9203 15.6395 16.1494L14.0684 17.6768C13.7478 17.9867 13.793 18.5033 14.1496 18.7773C15.2558 19.6398 16.6373 20.1205 18.055 20.125V22.2812C18.055 22.6766 18.3801 23 18.7774 23H20.2221C20.6194 23 20.9445 22.6766 20.9445 22.2812V20.116C23.0484 20.0756 25.0214 18.8313 25.7167 16.8502C26.6874 14.083 25.0575 11.2439 22.4434 10.4848Z" fill="black"/>
</svg>
