<svg width="25" height="25" viewBox="0 0 25 25" fill="none" xmlns="http://www.w3.org/2000/svg">
<path d="M18.6828 17.3768L18.6838 17.3756C18.9443 17.061 19.0402 16.6946 18.9844 16.3427C18.9306 16.0037 18.743 15.7162 18.5043 15.5182C18.2657 15.3203 17.9487 15.1891 17.6064 15.1986C17.2507 15.2085 16.9086 15.3699 16.6487 15.6841L17.0464 16.0131L16.6504 15.6821C15.6191 16.916 14.1107 17.624 12.5 17.624C10.8884 17.624 9.38078 16.9204 8.35025 15.6828L8.34893 15.6812C8.08671 15.3689 7.74413 15.2085 7.38859 15.1986C7.04587 15.1891 6.72852 15.3199 6.48962 15.5186C6.25072 15.7171 6.06382 16.0055 6.0117 16.3452C5.95762 16.6978 6.05586 17.0636 6.31741 17.377C7.85182 19.2182 10.1038 20.2742 12.5 20.2742C14.8963 20.2742 17.1484 19.2181 18.6828 17.3768ZM0.516129 12.5C0.516129 5.87981 5.87981 0.516129 12.5 0.516129C19.1202 0.516129 24.4839 5.87981 24.4839 12.5C24.4839 19.1202 19.1202 24.4839 12.5 24.4839C5.87981 24.4839 0.516129 19.1202 0.516129 12.5ZM18.6613 10.0806C18.6613 8.90346 17.7094 7.95161 16.5323 7.95161C15.3551 7.95161 14.4032 8.90346 14.4032 10.0806C14.4032 11.2578 15.3551 12.2097 16.5323 12.2097C17.7094 12.2097 18.6613 11.2578 18.6613 10.0806ZM10.5968 10.0806C10.5968 8.90346 9.64493 7.95161 8.46774 7.95161C7.29055 7.95161 6.33871 8.90346 6.33871 10.0806C6.33871 11.2578 7.29055 12.2097 8.46774 12.2097C9.64493 12.2097 10.5968 11.2578 10.5968 10.0806Z" fill="#FFFF00" stroke="#616161"/>
</svg>
