<svg width="25" height="15" viewBox="0 0 25 15" fill="none" xmlns="http://www.w3.org/2000/svg">
<path d="M24.2636 0.751994C22.7484 0.20725 21.232 4.02701e-08 19.7164 4.02701e-08C14.9052 -0.000334775 10.0943 2.08724 5.2831 2.08724C4.07648 2.08724 2.87065 1.95599 1.66403 1.62787C1.52849 1.59104 1.39255 1.57363 1.25974 1.57363C0.587489 1.57363 0 2.0196 0 2.63868V13.261C0 13.6839 0.282416 14.0847 0.735923 14.2474C2.25113 14.7925 3.7675 14.9997 5.2831 14.9997C10.0943 14.9997 14.9056 12.9121 19.7168 12.9121C20.9234 12.9121 22.1293 13.0434 23.3359 13.3715C23.4714 13.4083 23.6074 13.4257 23.7402 13.4257C24.4124 13.4257 24.9999 12.9798 24.9999 12.3607V1.73869C24.9995 1.31549 24.7171 0.915049 24.2636 0.751994ZM1.87496 3.35551C2.66089 3.52426 3.48118 3.60897 4.32492 3.6545C4.09523 4.63853 3.08588 5.38014 1.87496 5.38014V3.35551ZM1.87496 12.8977V11.298C3.21752 11.298 4.30382 12.211 4.36359 13.3538C3.48353 13.2932 2.66089 13.1425 1.87496 12.8977ZM12.4998 10.7141C10.7736 10.7141 9.37482 9.27471 9.37482 7.49985C9.37482 5.72466 10.774 4.28563 12.4998 4.28563C14.2255 4.28563 15.6247 5.72466 15.6247 7.49985C15.6247 9.27538 14.2251 10.7141 12.4998 10.7141ZM23.1245 11.6442C22.4402 11.4972 21.7297 11.4148 21.0027 11.3616C21.232 10.4884 22.0769 9.82548 23.1245 9.71164V11.6442ZM23.1245 3.73888C21.9179 3.60797 20.9816 2.74448 20.9445 1.67809C21.7078 1.75075 22.4324 1.88668 23.1245 2.10197V3.73888Z" fill="#164194"/>
</svg>
