<svg width="12" height="23" viewBox="0 0 12 23" fill="none" xmlns="http://www.w3.org/2000/svg">
<path d="M8.71702 10.4848L4.21605 9.06523C3.69511 8.90352 3.33253 8.37793 3.33253 7.79395C3.33253 7.06172 3.88265 6.46875 4.56196 6.46875H7.32506C7.8335 6.46875 8.33361 6.63496 8.75036 6.94043C9.00458 7.12461 9.34632 7.07969 9.56304 6.85059L11.0133 5.32324C11.3092 5.01328 11.2676 4.49668 10.9383 4.22266C9.91728 3.36016 8.642 2.87949 7.33339 2.875V0.71875C7.33339 0.323437 7.03333 0 6.66658 0H5.33296C4.96622 0 4.66615 0.323437 4.66615 0.71875V2.875H4.56196C1.90723 2.875 -0.226567 5.33223 0.0193195 8.24766C0.194357 10.3186 1.66134 12.0031 3.51174 12.5871L7.78349 13.9348C8.30443 14.101 8.66701 14.6221 8.66701 15.2061C8.66701 15.9383 8.11689 16.5312 7.43758 16.5312H4.67449C4.16604 16.5312 3.66594 16.365 3.24918 16.0596C2.99496 15.8754 2.65322 15.9203 2.43651 16.1494L0.986194 17.6768C0.690297 17.9867 0.731973 18.5033 1.06121 18.7773C2.08226 19.6398 3.35754 20.1205 4.66615 20.125V22.2812C4.66615 22.6766 4.96622 23 5.33296 23H6.66658C7.03333 23 7.33339 22.6766 7.33339 22.2812V20.116C9.27547 20.0756 11.0967 18.8313 11.7385 16.8502C12.6345 14.083 11.13 11.2439 8.71702 10.4848Z" fill="#009BD9"/>
</svg>
