<svg width="73" height="127" viewBox="0 0 73 127" fill="none" xmlns="http://www.w3.org/2000/svg">
<path d="M69.9448 80.3216L52.7608 63.5506L69.9302 46.9073C73.2068 43.7288 73.2068 38.1864 69.9448 35.0079L36.3632 2.23254C31.2516 -2.76682 23.0965 1.17836 23.0965 8.63747V53.9511V73.0382V118.352C23.0965 125.811 31.2225 129.756 36.3486 124.789L69.9302 92.221C73.1922 89.0425 73.2068 83.5001 69.9448 80.3216ZM63.9012 86.8223L31.572 118.176C31.0915 118.639 30.3342 118.272 30.3342 117.585V81.6473V72.2555V54.6859V45.358V9.35622C30.3342 8.66941 31.0915 8.30205 31.572 8.76525L63.8867 40.3107C64.207 40.6302 64.207 41.1892 63.8867 41.5087L46.9794 57.9123L41.2271 63.5026L47.0085 69.1409L63.9012 85.6244C64.2216 85.9439 64.2216 86.5029 63.9012 86.8223Z" fill="#F6F6F6"/>
<path d="M46.8482 57.6727L13.2666 24.8973C8.15512 19.914 0 23.8432 0 31.3182V95.7189C0 103.178 8.12599 107.123 13.2521 102.156L46.8337 69.5721C50.1103 66.4096 50.1103 60.8512 46.8482 57.6727ZM40.8047 64.1735L8.49006 95.5273C8.00949 95.9905 7.25223 95.6231 7.25223 94.9363V32.037C7.25223 31.3502 8.00949 30.9828 8.49006 31.446L40.8047 62.9915C41.1396 63.3109 41.1396 63.854 40.8047 64.1735Z" fill="#F6F6F6"/>
</svg>
