<svg width="289" height="85" viewBox="0 0 289 85" fill="none" xmlns="http://www.w3.org/2000/svg">
<path d="M82.2486 34.6313C82.1419 34.4398 81.7831 34.1527 81.1721 33.7591C80.5514 33.3655 79.7853 32.9401 78.8543 32.4933C77.933 32.0466 76.9147 31.6424 75.8188 31.3126C74.723 30.9723 73.6271 30.8021 72.5312 30.8021C71.0862 30.8021 69.9709 31.0786 69.1854 31.6105C68.3999 32.1529 68.0022 32.9826 68.0022 34.0995C68.0022 34.993 68.3029 35.7056 68.9042 36.2268C69.5054 36.748 70.3686 37.2054 71.5032 37.599C72.6379 37.9925 74.0247 38.4499 75.6734 38.9711C78.0009 39.6412 80.0278 40.4603 81.7443 41.4069C83.4608 42.3642 84.7701 43.5875 85.6817 45.0766C86.5933 46.5658 87.0491 48.5548 87.0491 51.0119C87.0491 53.2563 86.6709 55.1496 85.9144 56.7026C85.158 58.2556 84.1397 59.5001 82.8499 60.4574C81.56 61.4147 80.0956 62.0954 78.447 62.5316C76.7983 62.957 75.1012 63.1804 73.3555 63.1804C71.5711 63.1804 69.7479 62.9783 67.8762 62.5847C66.0044 62.1912 64.2103 61.6274 62.5035 60.8935C60.7869 60.1596 59.2159 59.2661 57.7709 58.213L61.4755 50.1397C61.6113 50.3312 62.0574 50.6716 62.8138 51.1821C63.5703 51.6927 64.5013 52.2139 65.6165 52.767C66.7318 53.3095 67.9731 53.7881 69.3503 54.203C70.7177 54.6178 72.1142 54.8199 73.5204 54.8199C75.0333 54.8199 76.1486 54.5646 76.8856 54.0434C77.6226 53.5329 77.9912 52.8096 77.9912 51.8842C77.9912 50.8737 77.6033 50.0865 76.8371 49.5228C76.0613 48.959 75.0236 48.4591 73.695 48.0124C72.376 47.5656 70.8535 47.0551 69.1466 46.5019C66.9161 45.7574 65.0734 44.9171 63.6187 43.981C62.164 43.045 61.0779 41.9069 60.3796 40.556C59.6717 39.2051 59.3225 37.5245 59.3225 35.5035C59.3225 32.6954 59.9335 30.3341 61.1458 28.4088C62.358 26.4835 63.997 25.0263 66.0626 24.0371C68.1186 23.0479 70.3685 22.5479 72.8027 22.5479C74.5193 22.5479 76.168 22.7713 77.7681 23.2287C79.3586 23.6754 80.8521 24.2392 82.2486 24.9199C83.6354 25.6007 84.8768 26.2708 85.9823 26.9516L82.2486 34.6313Z" fill="#F6F6F6"/>
<path d="M91.5587 29.887V21.7073H99.7923V29.887H91.5587ZM91.5587 62.8929V33.2695H99.7923V62.8929H91.5587Z" fill="#F6F6F6"/>
<path d="M148.408 62.8931H140.175V46.5869C140.175 44.7042 139.845 43.3214 139.195 42.4385C138.545 41.5557 137.702 41.109 136.674 41.109C135.578 41.109 134.492 41.5876 133.435 42.5449C132.368 43.5022 131.621 44.7361 131.175 46.2465V62.8824H122.941V46.5869C122.941 44.6723 122.612 43.2789 121.962 42.4173C121.312 41.5557 120.468 41.1196 119.44 41.1196C118.374 41.1196 117.316 41.5876 116.25 42.5343C115.183 43.481 114.417 44.6829 113.932 46.1721V62.9037H105.708V33.61H113.117V38.6093C114.116 36.8649 115.454 35.5246 117.152 34.578C118.849 33.6313 120.827 33.1633 123.096 33.1633C125.327 33.1633 127.044 33.727 128.236 34.8545C129.439 35.982 130.205 37.3116 130.554 38.8327C131.582 37.0138 132.95 35.6204 134.647 34.6418C136.344 33.6632 138.254 33.1739 140.378 33.1739C142.095 33.1739 143.482 33.5143 144.548 34.2057C145.615 34.8864 146.42 35.7906 146.963 36.8968C147.516 38.0137 147.885 39.205 148.098 40.4814C148.302 41.7578 148.408 43.0129 148.408 44.2362V62.8931Z" fill="#F6F6F6"/>
<path d="M169.346 63.4568C167.155 63.4568 165.196 62.8611 163.479 61.6698C161.762 60.4785 160.405 58.9681 159.416 57.1279V74.9126H154.887V33.61H158.902V39.1518C159.968 37.3648 161.355 35.9182 163.072 34.812C164.788 33.7058 166.65 33.1633 168.677 33.1633C170.529 33.1633 172.227 33.5781 173.769 34.3972C175.311 35.2162 176.649 36.3437 177.784 37.7584C178.918 39.1731 179.801 40.7899 180.431 42.5981C181.061 44.4064 181.381 46.2997 181.381 48.2781C181.381 51.0437 180.877 53.5752 179.869 55.8941C178.86 58.2129 177.444 60.053 175.621 61.4145C173.798 62.7761 171.713 63.4568 169.346 63.4568ZM167.959 59.1702C169.298 59.1702 170.51 58.8617 171.587 58.2448C172.663 57.6279 173.594 56.8088 174.36 55.7877C175.136 54.7666 175.728 53.5965 176.135 52.2988C176.542 51.0011 176.756 49.6609 176.756 48.2781C176.756 46.8315 176.523 45.4488 176.057 44.1511C175.592 42.8534 174.942 41.694 174.098 40.6941C173.255 39.6943 172.285 38.8965 171.17 38.3221C170.054 37.7477 168.842 37.4605 167.542 37.4605C166.718 37.4605 165.874 37.6307 164.992 37.9605C164.119 38.3008 163.285 38.7689 162.499 39.3858C161.714 40.0027 161.045 40.6941 160.492 41.4812C159.939 42.2577 159.58 43.098 159.416 43.9915V52.3307C159.93 53.5965 160.618 54.7453 161.472 55.7877C162.325 56.8301 163.324 57.6598 164.458 58.2661C165.593 58.8617 166.757 59.1702 167.959 59.1702Z" fill="#F6F6F6"/>
<path d="M187.297 21.7073H191.826V55.4365C191.826 57.064 192.03 58.0638 192.447 58.4361C192.854 58.819 193.358 58.9998 193.94 58.9998C194.658 58.9998 195.347 58.9148 195.996 58.7446C196.646 58.5744 197.199 58.3936 197.645 58.2127L198.363 62.276C197.606 62.6164 196.714 62.8929 195.686 63.1269C194.658 63.3503 193.746 63.4673 192.961 63.4673C191.215 63.4673 189.828 62.9142 188.82 61.8292C187.811 60.7336 187.307 59.202 187.307 57.2448V21.7073H187.297Z" fill="#F6F6F6"/>
<path d="M202.164 27.9084V21.6966H206.693V27.9084H202.164ZM202.164 62.8928V33.4395H206.693V62.8928H202.164Z" fill="#F6F6F6"/>
<path d="M215.8 35.8649H212.047V33.5568H215.8V32.5994C215.8 31.2805 215.974 29.9615 216.314 28.6213C216.653 27.2811 217.187 26.0578 217.904 24.9303C218.622 23.8028 219.563 22.8881 220.707 22.1967C221.851 21.5053 223.238 21.1543 224.848 21.1543C226.08 21.1543 227.195 21.3032 228.194 21.601C229.193 21.8988 230.007 22.2392 230.667 22.6115C231.317 22.9838 231.763 23.2923 232.005 23.5156L230.715 25.4941C230.23 25.0473 229.484 24.6325 228.456 24.2496C227.428 23.8773 226.264 23.6858 224.955 23.6858C223.413 23.6858 222.152 24.1326 221.172 25.0367C220.193 25.9408 219.485 27.0683 219.039 28.4192C218.593 29.7701 218.37 31.1422 218.37 32.5356V33.5461H231.491V62.8823H228.921V35.8649H218.379V62.893H215.809V35.8649H215.8Z" fill="#F6F6F6"/>
<path d="M251.139 63.4568C249.287 63.4568 247.551 63.0526 245.941 62.2442C244.331 61.4358 242.925 60.3296 241.723 58.9255C240.52 57.5215 239.589 55.9047 238.92 54.0645C238.251 52.2244 237.921 50.2566 237.921 48.1611C237.921 45.353 238.483 42.8215 239.618 40.5771C240.753 38.3328 242.314 36.5245 244.302 35.1843C246.29 33.8334 248.55 33.1633 251.091 33.1633C253.525 33.1633 255.668 33.7802 257.521 34.9928C259.373 36.216 260.76 37.8754 261.691 39.9815L259.169 40.8856C258.384 39.2688 257.259 38.003 255.804 37.0776C254.349 36.1522 252.739 35.6948 250.994 35.6948C249.035 35.6948 247.27 36.2373 245.699 37.3223C244.118 38.4072 242.857 39.8964 241.916 41.7897C240.976 43.6831 240.501 45.8104 240.501 48.1611C240.501 50.4799 240.976 52.6179 241.946 54.5645C242.906 56.511 244.186 58.0533 245.776 59.2021C247.367 60.3402 249.132 60.9146 251.052 60.9146C252.284 60.9146 253.496 60.6593 254.679 60.1488C255.862 59.6382 256.89 58.9787 257.763 58.1491C258.636 57.3194 259.208 56.4365 259.489 55.5005L262.011 56.2876C261.565 57.681 260.789 58.9149 259.693 59.9786C258.597 61.0529 257.317 61.8932 255.862 62.5208C254.388 63.1483 252.817 63.4568 251.139 63.4568Z" fill="#F6F6F6"/>
<path d="M265.851 54.458C265.851 52.6923 266.326 51.1712 267.296 49.8735C268.256 48.5758 269.575 47.5653 271.253 46.8314C272.931 46.0975 274.87 45.7358 277.062 45.7358C278.429 45.7358 279.855 45.8634 281.329 46.1294C282.803 46.3953 284.122 46.7463 285.286 47.2037V44.4488C285.286 41.7577 284.578 39.609 283.152 37.9922C281.727 36.3861 279.768 35.5777 277.266 35.5777C275.927 35.5777 274.54 35.8755 273.095 36.4818C271.65 37.0881 270.176 37.9497 268.673 39.0772L267.597 37.0456C269.342 35.7692 271.03 34.8012 272.669 34.1417C274.298 33.4822 275.918 33.1525 277.527 33.1525C280.718 33.1525 283.24 34.1843 285.092 36.2478C286.944 38.3113 287.865 41.1195 287.865 44.6721V59.17C287.865 59.6168 287.962 59.9572 288.147 60.1805C288.331 60.4039 288.622 60.5316 289 60.5741V62.8823C288.69 62.9142 288.438 62.9355 288.224 62.9355C288.021 62.9355 287.846 62.9355 287.71 62.9355C287.061 62.8185 286.556 62.5206 286.197 62.0313C285.839 61.5421 285.635 60.9996 285.606 60.3933V58.0851C284.374 59.7763 282.784 61.0953 280.844 62.0313C278.904 62.9674 276.878 63.446 274.744 63.446C273.066 63.446 271.544 63.0525 270.196 62.2653C268.838 61.4782 267.781 60.4039 267.005 59.0318C266.239 57.6703 265.851 56.1492 265.851 54.458ZM284.267 56.8725C284.607 56.3832 284.869 55.9152 285.043 55.4685C285.218 55.0217 285.305 54.6069 285.305 54.2346V49.4055C284.074 48.8843 282.784 48.4907 281.445 48.2248C280.107 47.9589 278.74 47.8313 277.333 47.8313C274.657 47.8313 272.484 48.4163 270.826 49.5757C269.158 50.7351 268.334 52.3093 268.334 54.2984C268.334 55.5323 268.625 56.681 269.206 57.7234C269.788 58.7765 270.603 59.6168 271.65 60.255C272.698 60.8932 273.91 61.2123 275.277 61.2123C277.198 61.2123 278.972 60.8081 280.602 59.9997C282.221 59.1913 283.443 58.1489 284.267 56.8725Z" fill="#F6F6F6"/>
<path d="M46.5794 53.4899L35.1358 42.3213L46.5697 31.2378C48.7518 29.1211 48.7518 25.4301 46.5794 23.3134L24.2159 1.48675C20.8119 -1.84256 15.381 0.784725 15.381 5.7521V35.9286V48.6396V78.8161C15.381 83.7835 20.7925 86.4107 24.2062 83.1027L46.5697 61.4143C48.7421 59.2976 48.7518 55.6066 46.5794 53.4899ZM42.5548 57.8191L21.0252 78.6991C20.7052 79.0075 20.2009 78.7629 20.2009 78.3055V54.3728V48.1184V36.4179V30.206V6.23075C20.2009 5.77337 20.7052 5.52873 21.0252 5.83719L42.5451 26.8448C42.7584 27.0575 42.7584 27.4298 42.5451 27.6426L31.2857 38.5665L27.455 42.2894L31.3051 46.0442L42.5548 57.0213C42.7681 57.2341 42.7681 57.6064 42.5548 57.8191Z" fill="#F6F6F6"/>
<path d="M31.1984 38.407L8.83487 16.5803C5.43088 13.2616 0 15.8783 0 20.8563V63.7438C0 68.7111 5.41148 71.3384 8.82518 68.0304L31.1888 46.3314C33.3708 44.2253 33.3708 40.5237 31.1984 38.407ZM27.1738 42.7361L5.65393 63.6161C5.3339 63.9246 4.8296 63.6799 4.8296 63.2226V21.3349C4.8296 20.8776 5.3339 20.6329 5.65393 20.9414L27.1738 41.949C27.3968 42.1617 27.3968 42.5234 27.1738 42.7361Z" fill="#F6F6F6"/>
</svg>
