<svg width="30" height="30" viewBox="0 0 30 30" fill="none" xmlns="http://www.w3.org/2000/svg">
<mask id="path-1-inside-1_272_4002" fill="white">
<path fill-rule="evenodd" clip-rule="evenodd" d="M15 0C15.3315 0 15.6495 0.131696 15.8839 0.366117C16.1183 0.600537 16.25 0.918479 16.25 1.25V13.75H28.75C29.0815 13.75 29.3995 13.8817 29.6339 14.1161C29.8683 14.3505 30 14.6685 30 15C30 15.3315 29.8683 15.6495 29.6339 15.8839C29.3995 16.1183 29.0815 16.25 28.75 16.25H16.25V28.75C16.25 29.0815 16.1183 29.3995 15.8839 29.6339C15.6495 29.8683 15.3315 30 15 30C14.6685 30 14.3505 29.8683 14.1161 29.6339C13.8817 29.3995 13.75 29.0815 13.75 28.75V16.25H1.25C0.918479 16.25 0.600537 16.1183 0.366117 15.8839C0.131696 15.6495 0 15.3315 0 15C0 14.6685 0.131696 14.3505 0.366117 14.1161C0.600537 13.8817 0.918479 13.75 1.25 13.75H13.75V1.25C13.75 0.918479 13.8817 0.600537 14.1161 0.366117C14.3505 0.131696 14.6685 0 15 0Z"/>
</mask>
<path fill-rule="evenodd" clip-rule="evenodd" d="M15 0C15.3315 0 15.6495 0.131696 15.8839 0.366117C16.1183 0.600537 16.25 0.918479 16.25 1.25V13.75H28.75C29.0815 13.75 29.3995 13.8817 29.6339 14.1161C29.8683 14.3505 30 14.6685 30 15C30 15.3315 29.8683 15.6495 29.6339 15.8839C29.3995 16.1183 29.0815 16.25 28.75 16.25H16.25V28.75C16.25 29.0815 16.1183 29.3995 15.8839 29.6339C15.6495 29.8683 15.3315 30 15 30C14.6685 30 14.3505 29.8683 14.1161 29.6339C13.8817 29.3995 13.75 29.0815 13.75 28.75V16.25H1.25C0.918479 16.25 0.600537 16.1183 0.366117 15.8839C0.131696 15.6495 0 15.3315 0 15C0 14.6685 0.131696 14.3505 0.366117 14.1161C0.600537 13.8817 0.918479 13.75 1.25 13.75H13.75V1.25C13.75 0.918479 13.8817 0.600537 14.1161 0.366117C14.3505 0.131696 14.6685 0 15 0Z" fill="white"/>
<path d="M15 0V6V0ZM16.25 13.75H10.25V19.75H16.25V13.75ZM16.25 16.25V10.25H10.25V16.25H16.25ZM13.75 16.25H19.75V10.25H13.75V16.25ZM13.75 13.75V19.75H19.75V13.75H13.75ZM15 6C13.7402 6 12.532 5.49956 11.6412 4.60876L20.1265 -3.87652C18.7669 -5.23616 16.9228 -6 15 -6V6ZM11.6412 4.60876C10.7504 3.71795 10.25 2.50977 10.25 1.25H22.25C22.25 -0.672809 21.4862 -2.51688 20.1265 -3.87652L11.6412 4.60876ZM10.25 1.25V13.75H22.25V1.25H10.25ZM16.25 19.75H28.75V7.75H16.25V19.75ZM28.75 19.75C27.4902 19.75 26.282 19.2496 25.3912 18.3588L33.8765 9.87348C32.5169 8.51384 30.6728 7.75 28.75 7.75V19.75ZM25.3912 18.3588C24.5004 17.468 24 16.2598 24 15H36C36 13.0772 35.2362 11.2331 33.8765 9.87348L25.3912 18.3588ZM24 15C24 13.7402 24.5004 12.5321 25.3912 11.6412L33.8765 20.1265C35.2362 18.7669 36 16.9228 36 15H24ZM25.3912 11.6412C26.2821 10.7504 27.4902 10.25 28.75 10.25V22.25C30.6728 22.25 32.5169 21.4862 33.8765 20.1265L25.3912 11.6412ZM28.75 10.25H16.25V22.25H28.75V10.25ZM10.25 16.25V28.75H22.25V16.25H10.25ZM10.25 28.75C10.25 27.4902 10.7504 26.2821 11.6412 25.3912L20.1265 33.8765C21.4862 32.5169 22.25 30.6728 22.25 28.75H10.25ZM11.6412 25.3912C12.5321 24.5004 13.7402 24 15 24V36C16.9228 36 18.7669 35.2362 20.1265 33.8765L11.6412 25.3912ZM15 24C16.2598 24 17.468 24.5004 18.3588 25.3912L9.87348 33.8765C11.2331 35.2362 13.0772 36 15 36V24ZM18.3588 25.3912C19.2496 26.282 19.75 27.4902 19.75 28.75H7.75C7.75 30.6728 8.51384 32.5169 9.87348 33.8765L18.3588 25.3912ZM19.75 28.75V16.25H7.75V28.75H19.75ZM13.75 10.25H1.25V22.25H13.75V10.25ZM1.25 10.25C2.50977 10.25 3.71795 10.7504 4.60876 11.6412L-3.87652 20.1265C-2.51688 21.4862 -0.672809 22.25 1.25 22.25V10.25ZM4.60876 11.6412C5.49956 12.532 6 13.7402 6 15H-6C-6 16.9228 -5.23616 18.7669 -3.87652 20.1265L4.60876 11.6412ZM6 15C6 16.2598 5.49955 17.468 4.60876 18.3588L-3.87652 9.87348C-5.23616 11.2331 -6 13.0772 -6 15H6ZM4.60876 18.3588C3.71796 19.2496 2.50978 19.75 1.25 19.75V7.75C-0.672824 7.75 -2.51689 8.51384 -3.87652 9.87348L4.60876 18.3588ZM1.25 19.75H13.75V7.75H1.25V19.75ZM19.75 13.75V1.25H7.75V13.75H19.75ZM19.75 1.25C19.75 2.50978 19.2496 3.71796 18.3588 4.60876L9.87348 -3.87652C8.51384 -2.51689 7.75 -0.672824 7.75 1.25H19.75ZM18.3588 4.60876C17.468 5.49955 16.2598 6 15 6V-6C13.0772 -6 11.2331 -5.23616 9.87348 -3.87652L18.3588 4.60876Z" fill="white" mask="url(#path-1-inside-1_272_4002)"/>
</svg>
