<svg width="68" height="68" viewBox="0 0 68 68" fill="none" xmlns="http://www.w3.org/2000/svg">
<path d="M48.5184 24.4089V29.6207" stroke="white" stroke-width="3" stroke-linecap="round"/>
<path d="M18.4605 24.4089V29.6207" stroke="white" stroke-width="3" stroke-linecap="round"/>
<path d="M35.349 24.4089V37.861C35.349 37.861 35.4846 39.4815 33.1736 40.8557C33.1165 40.8675 30.577 40.8557 30.577 40.8557" stroke="white" stroke-width="3" stroke-linecap="round" stroke-linejoin="round"/>
<path d="M23.5655 48.8952C23.5655 48.8952 27.3985 52.3593 33.7297 52.3593C40.061 52.3593 43.8224 48.8952 43.8224 48.8952" stroke="white" stroke-width="3" stroke-linecap="round" stroke-linejoin="round"/>
<path d="M50.488 1.50456C50.488 1.50456 58.5191 1.50456 59.2446 1.50456C61.8921 1.50456 66.4953 3.90928 66.4953 8.40752C66.4953 12.9058 66.4953 17.8443 66.4953 17.8443" stroke="white" stroke-width="3" stroke-linecap="round" stroke-linejoin="round"/>
<path d="M17.512 1.50456C17.512 1.50456 9.48089 1.50456 8.75545 1.50456C6.10788 1.50456 1.50468 3.90928 1.50468 8.40752C1.50468 12.9058 1.50468 17.8443 1.50468 17.8443" stroke="white" stroke-width="3" stroke-linecap="round" stroke-linejoin="round"/>
<path d="M50.488 66.4406C50.488 66.4406 58.5191 66.4406 59.2446 66.4406C61.8921 66.4406 66.4953 64.0359 66.4953 59.5376C66.4953 55.0394 66.4953 50.1009 66.4953 50.1009" stroke="white" stroke-width="3" stroke-linecap="round" stroke-linejoin="round"/>
<path d="M17.512 66.4406C17.512 66.4406 9.48089 66.4406 8.75545 66.4406C6.10788 66.4406 1.50468 64.0359 1.50468 59.5376C1.50468 55.0394 1.50468 50.1009 1.50468 50.1009" stroke="white" stroke-width="3" stroke-linecap="round" stroke-linejoin="round"/>
</svg>
