<svg width="22" height="22" viewBox="0 0 22 22" fill="none" xmlns="http://www.w3.org/2000/svg">
<path d="M19.6429 22H2.35714C1.05531 22 0 20.9447 0 19.6429V2.35714C0 1.05531 1.05531 0 2.35714 0H19.6429C20.9447 0 22 1.05531 22 2.35714V19.6429C22 20.9447 20.9447 22 19.6429 22ZM9.59131 17.1846L18.627 8.14889C18.9338 7.84207 18.9338 7.34456 18.627 7.03774L17.5159 5.92659C17.2091 5.61977 16.7116 5.61972 16.4047 5.92659L9.03571 13.2955L5.59532 9.85512C5.2885 9.5483 4.79099 9.5483 4.48412 9.85512L3.37297 10.9663C3.06615 11.2731 3.06615 11.7706 3.37297 12.0774L8.48012 17.1846C8.78699 17.4915 9.28444 17.4915 9.59131 17.1846Z" fill="#009BD9"/>
</svg>
