<svg width="40" height="24" viewBox="0 0 40 24" fill="none" xmlns="http://www.w3.org/2000/svg">
<path d="M19.5156 8.16129C21.459 8.16129 23.0313 9.65444 23.0313 11.5C23.0313 13.3456 21.459 14.8387 19.5156 14.8387C17.5723 14.8387 16 13.3456 16 11.5C16 9.65444 17.5723 8.16129 19.5156 8.16129ZM16 3.33871C16 5.18427 17.5723 6.67742 19.5156 6.67742C21.459 6.67742 23.0313 5.18427 23.0313 3.33871C23.0313 1.49315 21.459 0 19.5156 0C17.5723 0 16 1.49315 16 3.33871ZM16 19.6613C16 21.5069 17.5723 23 19.5156 23C21.459 23 23.0313 21.5069 23.0313 19.6613C23.0313 17.8157 21.459 16.3226 19.5156 16.3226C17.5723 16.3226 16 17.8157 16 19.6613Z" fill="#009BD9"/>
</svg>
