<svg width="15" height="13" viewBox="0 0 15 13" fill="none" xmlns="http://www.w3.org/2000/svg">
<path d="M14.796 11.2393L11.8749 8.70813C11.743 8.59389 11.5643 8.53042 11.3768 8.53042H10.8992C11.7079 7.63422 12.1884 6.50698 12.1884 5.28073C12.1884 2.36364 9.46065 0 6.0942 0C2.72774 0 0 2.36364 0 5.28073C0 8.19783 2.72774 10.5615 6.0942 10.5615C7.50934 10.5615 8.81021 10.1451 9.84447 9.44439V9.85822C9.84447 10.0207 9.91772 10.1756 10.0496 10.2898L12.9707 12.821C13.2461 13.0597 13.6914 13.0597 13.9639 12.821L14.7931 12.1025C15.0685 11.8639 15.0685 11.478 14.796 11.2393ZM6.0942 8.53042C4.02276 8.53042 2.34392 7.07822 2.34392 5.28073C2.34392 3.48579 4.01982 2.03105 6.0942 2.03105C8.16564 2.03105 9.84447 3.48325 9.84447 5.28073C9.84447 7.07568 8.16857 8.53042 6.0942 8.53042Z" fill="black"/>
</svg>
