<svg width="319" height="33" viewBox="0 0 319 33" fill="none" xmlns="http://www.w3.org/2000/svg">
<g filter="url(#filter0_d_7_1958)">
<g clip-path="url(#clip0_7_1958)">
<path d="M158.5 0V33H160.5V0H158.5Z" fill="black" fill-opacity="0.1" mask="url(#path-2-inside-1_7_1958)"/>
<path d="M226.75 16.4717C226.765 24.7362 220.025 31.4942 211.761 31.5C208.191 31.5025 204.913 30.2583 202.336 28.1788C201.666 27.638 201.616 26.6339 202.225 26.0251L202.906 25.3436C203.427 24.8229 204.258 24.766 204.835 25.2236C206.734 26.73 209.136 27.6291 211.75 27.6291C217.901 27.6291 222.879 22.6506 222.879 16.5C222.879 10.3485 217.901 5.37098 211.75 5.37098C208.798 5.37098 206.116 6.5183 204.125 8.39106L207.195 11.4609C207.804 12.0705 207.373 13.1129 206.51 13.1129H197.718C197.183 13.1129 196.75 12.6797 196.75 12.1452V3.35244C196.75 2.4903 197.792 2.05851 198.402 2.66813L201.388 5.65434C204.081 3.08081 207.731 1.5 211.75 1.5C220.025 1.5 226.735 8.20042 226.75 16.4717ZM215.808 21.2368L216.402 20.4729C216.894 19.8401 216.78 18.928 216.147 18.4359L213.685 16.5211V10.2097C213.685 9.40798 213.036 8.75808 212.234 8.75808H211.266C210.464 8.75808 209.815 9.40798 209.815 10.2097V18.4144L213.771 21.4915C214.404 21.9836 215.316 21.8697 215.808 21.2368Z" fill="#009BD9"/>
<path d="M280.342 1.5H253.158C251.909 1.5 251.278 3.01559 252.164 3.90064L263 14.7387V26.8125C263 27.2713 263.224 27.7014 263.6 27.9646L268.287 31.2446C269.212 31.892 270.5 31.2359 270.5 30.0926V14.7387L281.337 3.90064C282.22 3.01734 281.594 1.5 280.342 1.5Z" fill="#009BD9"/>
</g>
</g>
<defs>
<filter id="filter0_d_7_1958" x="-6" y="-6" width="331" height="45" filterUnits="userSpaceOnUse" color-interpolation-filters="sRGB">
<feFlood flood-opacity="0" result="BackgroundImageFix"/>
<feColorMatrix in="SourceAlpha" type="matrix" values="0 0 0 0 0 0 0 0 0 0 0 0 0 0 0 0 0 0 127 0" result="hardAlpha"/>
<feOffset/>
<feGaussianBlur stdDeviation="3"/>
<feColorMatrix type="matrix" values="0 0 0 0 0 0 0 0 0 0 0 0 0 0 0 0 0 0 0.12 0"/>
<feBlend mode="normal" in2="BackgroundImageFix" result="effect1_dropShadow_7_1958"/>
<feBlend mode="normal" in="SourceGraphic" in2="effect1_dropShadow_7_1958" result="shape"/>
</filter>
<clipPath id="clip0_7_1958">
<path d="M0 0H304C312.284 0 319 6.71573 319 15V18C319 26.2843 312.284 33 304 33H0V0Z" fill="white"/>
</clipPath>
</defs>
</svg>
