<svg width="40" height="28" viewBox="0 0 40 28" fill="none" xmlns="http://www.w3.org/2000/svg">
<path d="M19.6288 5.9668L10.667 13.7635V22.1785C10.667 22.3964 10.749 22.6053 10.8948 22.7594C11.0407 22.9134 11.2385 23 11.4448 23L16.8917 22.9851C17.0973 22.984 17.2941 22.897 17.4391 22.743C17.5841 22.5891 17.6655 22.3808 17.6655 22.1636V17.2494C17.6655 17.0315 17.7475 16.8225 17.8933 16.6685C18.0392 16.5144 18.237 16.4278 18.4432 16.4278H21.5541C21.7604 16.4278 21.9582 16.5144 22.104 16.6685C22.2499 16.8225 22.3318 17.0315 22.3318 17.2494V22.16C22.3315 22.2681 22.3514 22.3752 22.3903 22.4752C22.4293 22.5751 22.4865 22.666 22.5588 22.7426C22.631 22.8191 22.7169 22.8799 22.8114 22.9213C22.9059 22.9627 23.0072 22.9841 23.1096 22.9841L28.5545 23C28.7608 23 28.9586 22.9134 29.1045 22.7594C29.2503 22.6053 29.3323 22.3964 29.3323 22.1785V13.7579L20.3725 5.9668C20.2671 5.87712 20.1359 5.82821 20.0006 5.82821C19.8653 5.82821 19.7341 5.87712 19.6288 5.9668ZM33.7847 11.2661L29.7211 7.72794V0.61614C29.7211 0.45273 29.6597 0.296012 29.5503 0.180463C29.4409 0.0649147 29.2925 0 29.1378 0H26.4158C26.2611 0 26.1128 0.0649147 26.0034 0.180463C25.894 0.296012 25.8325 0.45273 25.8325 0.61614V4.3443L21.4807 0.562228C21.0631 0.199208 20.539 0.000725682 19.9982 0.000725682C19.4573 0.000725682 18.9333 0.199208 18.5157 0.562228L6.21168 11.2661C6.15262 11.3177 6.10375 11.381 6.06788 11.4526C6.032 11.5241 6.00982 11.6024 6.0026 11.683C5.99537 11.7635 6.00325 11.8448 6.02579 11.9222C6.04832 11.9996 6.08506 12.0715 6.13391 12.1339L7.3734 13.7255C7.42212 13.7881 7.48205 13.8399 7.54975 13.878C7.61745 13.9161 7.69159 13.9397 7.76794 13.9475C7.84429 13.9553 7.92134 13.947 7.99468 13.9233C8.06802 13.8996 8.13621 13.8608 8.19535 13.8092L19.6288 3.86166C19.7341 3.77197 19.8653 3.72306 20.0006 3.72306C20.1359 3.72306 20.2671 3.77197 20.3725 3.86166L31.8064 13.8092C31.8654 13.8608 31.9335 13.8997 32.0067 13.9235C32.08 13.9473 32.1569 13.9556 32.2332 13.948C32.3095 13.9403 32.3836 13.9169 32.4513 13.879C32.5191 13.8411 32.579 13.7895 32.6278 13.7271L33.8673 12.1354C33.9161 12.0727 33.9527 12.0004 33.975 11.9227C33.9973 11.845 34.0048 11.7634 33.9971 11.6826C33.9894 11.6018 33.9667 11.5235 33.9302 11.452C33.8938 11.3805 33.8443 11.3173 33.7847 11.2661Z" fill="black"/>
</svg>
