<svg width="25" height="25" viewBox="0 0 25 25" fill="none" xmlns="http://www.w3.org/2000/svg">
<path d="M23 12C23 14.6522 21.9464 17.1957 20.0711 19.0711C18.1957 20.9464 15.6522 22 13 22C10.3478 22 7.8043 20.9464 5.92893 19.0711C4.05357 17.1957 3 14.6522 3 12C3 9.34784 4.05357 6.8043 5.92893 4.92893C7.8043 3.05357 10.3478 2 13 2C15.6522 2 18.1957 3.05357 20.0711 4.92893C21.9464 6.8043 23 9.34784 23 12ZM13.625 7.625C13.625 7.45924 13.5592 7.30027 13.4419 7.18306C13.3247 7.06585 13.1658 7 13 7C12.8342 7 12.6753 7.06585 12.5581 7.18306C12.4408 7.30027 12.375 7.45924 12.375 7.625V11.375H8.625C8.45924 11.375 8.30027 11.4408 8.18306 11.5581C8.06585 11.6753 8 11.8342 8 12C8 12.1658 8.06585 12.3247 8.18306 12.4419C8.30027 12.5592 8.45924 12.625 8.625 12.625H12.375V16.375C12.375 16.5408 12.4408 16.6997 12.5581 16.8169C12.6753 16.9342 12.8342 17 13 17C13.1658 17 13.3247 16.9342 13.4419 16.8169C13.5592 16.6997 13.625 16.5408 13.625 16.375V12.625H17.375C17.5408 12.625 17.6997 12.5592 17.8169 12.4419C17.9342 12.3247 18 12.1658 18 12C18 11.8342 17.9342 11.6753 17.8169 11.5581C17.6997 11.4408 17.5408 11.375 17.375 11.375H13.625V7.625Z" fill="#009BD9"/>
</svg>
